<svg xmlns="http://www.w3.org/2000/svg" id="svg5351" version="1.1" viewBox="9.55 5.23 380.3 661.97">  <defs id="defs5353">    <filter id="filter4481" color-interpolation-filters="sRGB">      <feGaussianBlur id="feGaussianBlur4483" stdDeviation="4.0901076"></feGaussianBlur>    </filter>    <filter id="filter4497" color-interpolation-filters="sRGB">      <feGaussianBlur id="feGaussianBlur4499" stdDeviation="4.0901076"></feGaussianBlur>    </filter>    <filter id="filter4507" color-interpolation-filters="sRGB">      <feGaussianBlur id="feGaussianBlur4509" stdDeviation="4.0901076"></feGaussianBlur>    </filter>    <filter id="filter4527" color-interpolation-filters="sRGB">      <feGaussianBlur id="feGaussianBlur4529" stdDeviation="4.0901076"></feGaussianBlur>    </filter>    <filter id="filter4879" color-interpolation-filters="sRGB">      <feGaussianBlur id="feGaussianBlur4881" stdDeviation="4.090108"></feGaussianBlur>    </filter>    <filter id="filter4789" color-interpolation-filters="sRGB">      <feGaussianBlur id="feGaussianBlur4791" stdDeviation="4.0901076"></feGaussianBlur>    </filter>    <filter id="filter4845" color-interpolation-filters="sRGB">      <feGaussianBlur id="feGaussianBlur4847" stdDeviation="4.0901076"></feGaussianBlur>    </filter>    <filter id="filter4709" color-interpolation-filters="sRGB">      <feGaussianBlur id="feGaussianBlur4711" stdDeviation="4.0901076"></feGaussianBlur>    </filter>    <filter id="filter4551" color-interpolation-filters="sRGB">      <feGaussianBlur id="feGaussianBlur4553" stdDeviation="4.0901076"></feGaussianBlur>    </filter>    <filter id="filter4691" color-interpolation-filters="sRGB">      <feGaussianBlur id="feGaussianBlur4693" stdDeviation="4.0901076"></feGaussianBlur>    </filter>    <filter id="filter4897" color-interpolation-filters="sRGB">      <feGaussianBlur id="feGaussianBlur4899" stdDeviation="4.0901076"></feGaussianBlur>    </filter>    <filter id="filter4619" color-interpolation-filters="sRGB">      <feGaussianBlur id="feGaussianBlur4621" stdDeviation="4.0901076"></feGaussianBlur>    </filter>    <filter id="filter4733" color-interpolation-filters="sRGB">      <feGaussianBlur id="feGaussianBlur4735" stdDeviation="4.0901076"></feGaussianBlur>    </filter>    <filter id="filter4673" color-interpolation-filters="sRGB">      <feGaussianBlur id="feGaussianBlur4675" stdDeviation="4.0901076"></feGaussianBlur>    </filter>    <filter id="filter4753" color-interpolation-filters="sRGB">      <feGaussianBlur id="feGaussianBlur4755" stdDeviation="4.0901076"></feGaussianBlur>    </filter>    <filter id="filter4771" color-interpolation-filters="sRGB">      <feGaussianBlur id="feGaussianBlur4773" stdDeviation="4.0901076"></feGaussianBlur>    </filter>    <filter id="filter4655" color-interpolation-filters="sRGB">      <feGaussianBlur id="feGaussianBlur4657" stdDeviation="4.0901076"></feGaussianBlur>    </filter>    <filter id="filter4569" color-interpolation-filters="sRGB">      <feGaussianBlur id="feGaussianBlur4571" stdDeviation="4.0901076"></feGaussianBlur>    </filter>    <filter id="filter4953" color-interpolation-filters="sRGB">      <feGaussianBlur id="feGaussianBlur4955" stdDeviation="4.0901076"></feGaussianBlur>    </filter>    <filter id="filter4917" color-interpolation-filters="sRGB">      <feGaussianBlur id="feGaussianBlur4919" stdDeviation="4.0901076"></feGaussianBlur>    </filter>    <filter id="filter4935" color-interpolation-filters="sRGB">      <feGaussianBlur id="feGaussianBlur4937" stdDeviation="4.0901076"></feGaussianBlur>    </filter>    <filter id="filter4971" color-interpolation-filters="sRGB">      <feGaussianBlur id="feGaussianBlur4973" stdDeviation="4.0901076"></feGaussianBlur>    </filter>    <filter id="filter5025" color-interpolation-filters="sRGB">      <feGaussianBlur id="feGaussianBlur5027" stdDeviation="4.0901076"></feGaussianBlur>    </filter>    <filter id="filter5061" color-interpolation-filters="sRGB">      <feGaussianBlur id="feGaussianBlur5063" stdDeviation="4.0901076"></feGaussianBlur>    </filter>    <filter id="filter5079" color-interpolation-filters="sRGB">      <feGaussianBlur id="feGaussianBlur5081" stdDeviation="4.0901076"></feGaussianBlur>    </filter>    <filter id="filter5043" color-interpolation-filters="sRGB">      <feGaussianBlur id="feGaussianBlur5045" stdDeviation="4.0901076"></feGaussianBlur>    </filter>    <filter id="filter5097" color-interpolation-filters="sRGB">      <feGaussianBlur id="feGaussianBlur5099" stdDeviation="4.0901076"></feGaussianBlur>    </filter>    <filter id="filter4989" color-interpolation-filters="sRGB">      <feGaussianBlur id="feGaussianBlur4991" stdDeviation="4.0901076"></feGaussianBlur>    </filter>    <filter id="filter5007" color-interpolation-filters="sRGB">      <feGaussianBlur id="feGaussianBlur5009" stdDeviation="4.0901076"></feGaussianBlur>    </filter>    <filter id="filter4807" color-interpolation-filters="sRGB">      <feGaussianBlur id="feGaussianBlur4809" stdDeviation="4.0901076"></feGaussianBlur>    </filter>    <filter id="filter5115" color-interpolation-filters="sRGB">      <feGaussianBlur id="feGaussianBlur5117" stdDeviation="4.0901076"></feGaussianBlur>    </filter>    <filter id="filter4825" color-interpolation-filters="sRGB">      <feGaussianBlur id="feGaussianBlur4827" stdDeviation="4.0901076"></feGaussianBlur>    </filter>    <filter id="filter4595" color-interpolation-filters="sRGB">      <feGaussianBlur id="feGaussianBlur4597" stdDeviation="4.0901076"></feGaussianBlur>    </filter>    <filter id="filter4637" color-interpolation-filters="sRGB">      <feGaussianBlur id="feGaussianBlur4639" stdDeviation="4.0901076"></feGaussianBlur>    </filter>    <filter id="filter5133" color-interpolation-filters="sRGB">      <feGaussianBlur id="feGaussianBlur5135" stdDeviation="4.0901076"></feGaussianBlur>    </filter>    <filter id="filter6551" color-interpolation-filters="sRGB">      <feGaussianBlur id="feGaussianBlur6553" stdDeviation="11.473013"></feGaussianBlur>    </filter>    <linearGradient id="linearGradient6385" x1="28.926" x2="-112.07" y1="422.46" y2="285.42" gradientUnits="userSpaceOnUse">      <stop id="stop3921" offset="0" stop-color="#008400" style="--darkreader-inline-stopcolor: #006a00;" data-darkreader-inline-stopcolor=""></stop>      <stop id="stop3923" offset="1" stop-color="#00a000" style="--darkreader-inline-stopcolor: #008000;" data-darkreader-inline-stopcolor=""></stop>    </linearGradient>    <linearGradient id="linearGradient6389" x1="-53.632" x2="-135.5" y1="456.75" y2="216.93" gradientUnits="userSpaceOnUse">      <stop id="stop3937" offset="0" stop-color="#006400" style="--darkreader-inline-stopcolor: #005000;" data-darkreader-inline-stopcolor=""></stop>      <stop id="stop3939" offset="1" stop-color="#00a000" style="--darkreader-inline-stopcolor: #008000;" data-darkreader-inline-stopcolor=""></stop>    </linearGradient>    <linearGradient id="linearGradient6394" x1="462.51" x2="428.25" y1="1272.6" y2="323.12" gradientTransform="translate(102.24 96.838) scale(.6866)" gradientUnits="userSpaceOnUse">      <stop id="stop3943" offset="0"></stop>      <stop id="stop3989" offset=".5" stop-color="#986601" style="--darkreader-inline-stopcolor: #7a5201;" data-darkreader-inline-stopcolor=""></stop>      <stop id="stop3945" offset="1" stop-color="#000400" style="--darkreader-inline-stopcolor: #000300;" data-darkreader-inline-stopcolor=""></stop>    </linearGradient>  </defs>  <g id="layer1" transform="translate(-170.27 -220.57)">    <g id="g3287" transform="translate(130.54 199.91) scale(.64524)">      <g id="g6173" transform="translate(1173.7 629.21) scale(.6866)">        <path id="path6175" d="M54.286 333.79c0 78.109-58.843 141.43-131.43 141.43-72.586 0-131.43-63.32-131.43-141.43 0-78.109 58.843-141.43 131.43-141.43 72.586 0 131.43 63.32 131.43 141.43z" filter="url(#filter5133)" opacity=".5" transform="matrix(1.0761 0 0 1 -829.21 -922.76)"></path>        <path id="path6177" fill="#015a01" d="M54.286 333.79c0 78.109-58.843 141.43-131.43 141.43-72.586 0-131.43-63.32-131.43-141.43 0-78.109 58.843-141.43 131.43-141.43 72.586 0 131.43 63.32 131.43 141.43z" transform="matrix(1.0761 0 0 1 -843.05 -922.76)" style="--darkreader-inline-fill: #cbc7c0;" data-darkreader-inline-fill=""></path>      </g>      <g id="g6179" transform="translate(1608.5 576.94) scale(.6866)">        <path id="path6181" fill="#000400" d="M54.286 333.79c0 78.109-58.843 141.43-131.43 141.43-72.586 0-131.43-63.32-131.43-141.43 0-78.109 58.843-141.43 131.43-141.43 72.586 0 131.43 63.32 131.43 141.43z" filter="url(#filter4637)" opacity=".5" transform="matrix(1.0761 0 0 1 -1955.2 -520.12)" style="--darkreader-inline-fill: #e7e5e1;" data-darkreader-inline-fill=""></path>        <path id="path6183" fill="#006000" d="M54.286 333.79c0 78.109-58.843 141.43-131.43 141.43-72.586 0-131.43-63.32-131.43-141.43 0-78.109 58.843-141.43 131.43-141.43 72.586 0 131.43 63.32 131.43 141.43z" transform="matrix(1.0761 0 0 1 -1941.3 -533.96)" style="--darkreader-inline-fill: #cac5be;" data-darkreader-inline-fill=""></path>      </g>      <g id="g6185" transform="translate(1713.1 719.51) scale(.6866)">        <path id="path6187" fill="#000400" d="M54.286 333.79c0 78.109-58.843 141.43-131.43 141.43-72.586 0-131.43-63.32-131.43-141.43 0-78.109 58.843-141.43 131.43-141.43 72.586 0 131.43 63.32 131.43 141.43z" filter="url(#filter4595)" opacity=".5" transform="matrix(-1.0761 0 0 1 -2181.7 -672.29)" style="--darkreader-inline-fill: #e7e5e1;" data-darkreader-inline-fill=""></path>        <path id="path6189" fill="#390" d="M54.286 333.79c0 78.109-58.843 141.43-131.43 141.43-72.586 0-131.43-63.32-131.43-141.43 0-78.109 58.843-141.43 131.43-141.43 72.586 0 131.43 63.32 131.43 141.43z" transform="matrix(-1.0761 0 0 1 -2174.8 -686.13)" style="--darkreader-inline-fill: #96ff61;" data-darkreader-inline-fill=""></path>      </g>      <g id="g6191" transform="translate(1943.5 645.84) scale(.6866)">        <path id="path6193" d="M54.286 333.79c0 78.109-58.843 141.43-131.43 141.43-72.586 0-131.43-63.32-131.43-141.43 0-78.109 58.843-141.43 131.43-141.43 72.586 0 131.43 63.32 131.43 141.43z" filter="url(#filter4825)" opacity=".5" transform="matrix(-1.0761 0 0 1 -2190.7 -545.56)"></path>        <path id="path6195" fill="url(#linearGradient6385)" d="M54.286 333.79c0 78.109-58.843 141.43-131.43 141.43-72.586 0-131.43-63.32-131.43-141.43 0-78.109 58.843-141.43 131.43-141.43 72.586 0 131.43 63.32 131.43 141.43z" transform="matrix(-1.0761 0 0 1 -2211.5 -552.48)"></path>      </g>      <g id="g6197" transform="translate(1180.8 914.35) scale(.6866)">        <path id="path6199" d="M54.286 333.79c0 78.109-58.843 141.43-131.43 141.43-72.586 0-131.43-63.32-131.43-141.43 0-78.109 58.843-141.43 131.43-141.43 72.586 0 131.43 63.32 131.43 141.43z" filter="url(#filter5115)" opacity=".5" transform="matrix(1.0761 0 0 1 -959.91 -1445.9)"></path>        <path id="path6201" fill="#00ac00" d="M54.286 333.79c0 78.109-58.843 141.43-131.43 141.43-72.586 0-131.43-63.32-131.43-141.43 0-78.109 58.843-141.43 131.43-141.43 72.586 0 131.43 63.32 131.43 141.43z" transform="matrix(1.0761 0 0 1 -973.75 -1439)" style="--darkreader-inline-fill: #54ff54;" data-darkreader-inline-fill=""></path>      </g>      <g id="g6203" transform="translate(1865.1 710) scale(.6866)">        <path id="path6205" d="M54.286 333.79c0 78.109-58.843 141.43-131.43 141.43-72.586 0-131.43-63.32-131.43-141.43 0-78.109 58.843-141.43 131.43-141.43 72.586 0 131.43 63.32 131.43 141.43z" filter="url(#filter4807)" opacity=".5" transform="matrix(1.0761 0 0 1 -2005.5 -622.66)"></path>        <path id="path6207" fill="#006400" d="M54.286 333.79c0 78.109-58.843 141.43-131.43 141.43-72.586 0-131.43-63.32-131.43-141.43 0-78.109 58.843-141.43 131.43-141.43 72.586 0 131.43 63.32 131.43 141.43z" transform="matrix(1.0761 0 0 1 -2012.5 -636.5)" style="--darkreader-inline-fill: #c8c4bd;" data-darkreader-inline-fill=""></path>      </g>      <g id="g6209" transform="translate(2038.6 643.47) scale(.6866)">        <path id="path6211" d="M54.286 333.79c0 78.109-58.843 141.43-131.43 141.43-72.586 0-131.43-63.32-131.43-141.43 0-78.109 58.843-141.43 131.43-141.43 72.586 0 131.43 63.32 131.43 141.43z" filter="url(#filter5007)" opacity=".5" transform="matrix(1.0761 0 0 1 -2057.9 -803.7)"></path>        <path id="path6213" fill="#007c00" d="M54.286 333.79c0 78.109-58.843 141.43-131.43 141.43-72.586 0-131.43-63.32-131.43-141.43 0-78.109 58.843-141.43 131.43-141.43 72.586 0 131.43 63.32 131.43 141.43z" transform="matrix(1.0761 0 0 1 -2071.8 -803.7)" style="--darkreader-inline-fill: #75ff75;" data-darkreader-inline-fill=""></path>      </g>      <g id="g6215" transform="translate(1853.2 427.24) scale(.6866)">        <path id="path6217" d="M54.286 333.79c0 78.109-58.843 141.43-131.43 141.43-72.586 0-131.43-63.32-131.43-141.43 0-78.109 58.843-141.43 131.43-141.43 72.586 0 131.43 63.32 131.43 141.43z" filter="url(#filter4989)" opacity=".5" transform="matrix(1.0761 0 0 1 -2090.7 -756.14)"></path>        <path id="path6219" fill="#009c00" d="M54.286 333.79c0 78.109-58.843 141.43-131.43 141.43-72.586 0-131.43-63.32-131.43-141.43 0-78.109 58.843-141.43 131.43-141.43 72.586 0 131.43 63.32 131.43 141.43z" transform="matrix(1.0761 0 0 1 -2111.4 -749.22)" style="--darkreader-inline-fill: #5fff5f;" data-darkreader-inline-fill=""></path>      </g>      <g id="g6221" transform="translate(1599 947.62) scale(.6866)">        <path id="path6223" d="M54.286 333.79c0 78.109-58.843 141.43-131.43 141.43-72.586 0-131.43-63.32-131.43-141.43 0-78.109 58.843-141.43 131.43-141.43 72.586 0 131.43 63.32 131.43 141.43z" filter="url(#filter5097)" opacity=".5" transform="matrix(1.0761 0 0 1 -1797.1 -1482.1)"></path>        <path id="path6225" fill="#008c00" d="M54.286 333.79c0 78.109-58.843 141.43-131.43 141.43-72.586 0-131.43-63.32-131.43-141.43 0-78.109 58.843-141.43 131.43-141.43 72.586 0 131.43 63.32 131.43 141.43z" transform="matrix(1.0761 0 0 1 -1797.1 -1468.2)" style="--darkreader-inline-fill: #6aff6a;" data-darkreader-inline-fill=""></path>      </g>      <g id="g6227" transform="translate(1171.3 631.59) scale(.6866)">        <path id="path6229" d="M54.286 333.79c0 78.109-58.843 141.43-131.43 141.43-72.586 0-131.43-63.32-131.43-141.43 0-78.109 58.843-141.43 131.43-141.43 72.586 0 131.43 63.32 131.43 141.43z" filter="url(#filter5043)" opacity=".5" transform="matrix(1.0761 0 0 1 -810.45 -602.9)"></path>        <path id="path6231" fill="#008400" d="M54.286 333.79c0 78.109-58.843 141.43-131.43 141.43-72.586 0-131.43-63.32-131.43-141.43 0-78.109 58.843-141.43 131.43-141.43 72.586 0 131.43 63.32 131.43 141.43z" transform="matrix(1.0761 0 0 1 -824.29 -609.82)" style="--darkreader-inline-fill: #70ff70;" data-darkreader-inline-fill=""></path>      </g>      <g id="g6233" transform="translate(1696.4 1211.4) scale(.6866)">        <path id="path6235" d="M54.286 333.79c0 78.109-58.843 141.43-131.43 141.43-72.586 0-131.43-63.32-131.43-141.43 0-78.109 58.843-141.43 131.43-141.43 72.586 0 131.43 63.32 131.43 141.43z" filter="url(#filter5079)" opacity=".5" transform="matrix(1.0761 0 0 1 -1580.9 -1566)"></path>        <path id="path6237" fill="#007800" d="M54.286 333.79c0 78.109-58.843 141.43-131.43 141.43-72.586 0-131.43-63.32-131.43-141.43 0-78.109 58.843-141.43 131.43-141.43 72.586 0 131.43 63.32 131.43 141.43z" transform="matrix(1.0761 0 0 1 -1594.7 -1559.1)" style="--darkreader-inline-fill: #78ff78;" data-darkreader-inline-fill=""></path>      </g>      <g id="g6239" transform="translate(1677.4 1059.3) scale(.6866)">        <path id="path6241" fill="#000400" d="M54.286 333.79c0 78.109-58.843 141.43-131.43 141.43-72.586 0-131.43-63.32-131.43-141.43 0-78.109 58.843-141.43 131.43-141.43 72.586 0 131.43 63.32 131.43 141.43z" filter="url(#filter5061)" opacity=".5" transform="matrix(1.0761 0 0 1 -1632.6 -1573.9)" style="--darkreader-inline-fill: #e7e5e1;" data-darkreader-inline-fill=""></path>        <path id="path6243" fill="#390" d="M54.286 333.79c0 78.109-58.843 141.43-131.43 141.43-72.586 0-131.43-63.32-131.43-141.43 0-78.109 58.843-141.43 131.43-141.43 72.586 0 131.43 63.32 131.43 141.43z" transform="matrix(1.0761 0 0 1 -1646.4 -1567)" style="--darkreader-inline-fill: #96ff61;" data-darkreader-inline-fill=""></path>      </g>      <g id="g6245" transform="translate(1451.7 1042.7) scale(.6866)">        <path id="path6247" d="M54.286 333.79c0 78.109-58.843 141.43-131.43 141.43-72.586 0-131.43-63.32-131.43-141.43 0-78.109 58.843-141.43 131.43-141.43 72.586 0 131.43 63.32 131.43 141.43z" filter="url(#filter5025)" opacity=".5" transform="matrix(-1.0761 0 0 1 -1575 -1608)"></path>        <path id="path6249" fill="#00b000" d="M54.286 333.79c0 78.109-58.843 141.43-131.43 141.43-72.586 0-131.43-63.32-131.43-141.43 0-78.109 58.843-141.43 131.43-141.43 72.586 0 131.43 63.32 131.43 141.43z" transform="matrix(-1.0761 0 0 1 -1588.8 -1601.1)" style="--darkreader-inline-fill: #51ff51;" data-darkreader-inline-fill=""></path>      </g>      <g id="g6251" transform="translate(2036.2 795.54) scale(.6866)">        <path id="path6253" d="M54.286 333.79c0 78.109-58.843 141.43-131.43 141.43-72.586 0-131.43-63.32-131.43-141.43 0-78.109 58.843-141.43 131.43-141.43 72.586 0 131.43 63.32 131.43 141.43z" filter="url(#filter4971)" opacity=".5" transform="matrix(1.0761 0 0 1 -2128.3 -842.82)"></path>        <path id="path6255" fill="#006000" d="M54.286 333.79c0 78.109-58.843 141.43-131.43 141.43-72.586 0-131.43-63.32-131.43-141.43 0-78.109 58.843-141.43 131.43-141.43 72.586 0 131.43 63.32 131.43 141.43z" transform="matrix(1.0761 0 0 1 -2149.1 -849.74)" style="--darkreader-inline-fill: #cac5be;" data-darkreader-inline-fill=""></path>      </g>      <g id="g6257" transform="translate(1791.5 505.65) scale(.6866)">        <path id="path6259" fill="#000400" d="M54.286 333.79c0 78.109-58.843 141.43-131.43 141.43-72.586 0-131.43-63.32-131.43-141.43 0-78.109 58.843-141.43 131.43-141.43 72.586 0 131.43 63.32 131.43 141.43z" filter="url(#filter4935)" opacity=".5" transform="matrix(1.0761 0 0 1 -1802.4 -548.61)" style="--darkreader-inline-fill: #e7e5e1;" data-darkreader-inline-fill=""></path>        <path id="path6261" fill="#009400" d="M54.286 333.79c0 78.109-58.843 141.43-131.43 141.43-72.586 0-131.43-63.32-131.43-141.43 0-78.109 58.843-141.43 131.43-141.43 72.586 0 131.43 63.32 131.43 141.43z" transform="matrix(1.0761 0 0 1 -1816.3 -541.69)" style="--darkreader-inline-fill: #64ff64;" data-darkreader-inline-fill=""></path>      </g>      <g id="g6263" transform="translate(1955.4 431.99) scale(.6866)">        <path id="path6265" d="M54.286 333.79c0 78.109-58.843 141.43-131.43 141.43-72.586 0-131.43-63.32-131.43-141.43 0-78.109 58.843-141.43 131.43-141.43 72.586 0 131.43 63.32 131.43 141.43z" filter="url(#filter4917)" opacity=".5" transform="matrix(1.0761 0 0 1 -2094 -664.81)"></path>        <path id="path6267" fill="#008400" d="M54.286 333.79c0 78.109-58.843 141.43-131.43 141.43-72.586 0-131.43-63.32-131.43-141.43 0-78.109 58.843-141.43 131.43-141.43 72.586 0 131.43 63.32 131.43 141.43z" transform="matrix(1.0761 0 0 1 -2101 -650.97)" style="--darkreader-inline-fill: #70ff70;" data-darkreader-inline-fill=""></path>      </g>      <g id="g6269" transform="translate(2052.8 410.6) scale(.6866)">        <path id="path6271" d="M54.286 333.79c0 78.109-58.843 141.43-131.43 141.43-72.586 0-131.43-63.32-131.43-141.43 0-78.109 58.843-141.43 131.43-141.43 72.586 0 131.43 63.32 131.43 141.43z" filter="url(#filter4953)" opacity=".5" transform="matrix(1.0761 0 0 1 -2198.5 -526.44)"></path>        <path id="path6273" fill="#007800" d="M54.286 333.79c0 78.109-58.843 141.43-131.43 141.43-72.586 0-131.43-63.32-131.43-141.43 0-78.109 58.843-141.43 131.43-141.43 72.586 0 131.43 63.32 131.43 141.43z" transform="matrix(1.0761 0 0 1 -2212.3 -519.52)" style="--darkreader-inline-fill: #78ff78;" data-darkreader-inline-fill=""></path>      </g>      <g id="g6275" transform="translate(1779.6 688.61) scale(.6866)">        <path id="path6277" d="M54.286 333.79c0 78.109-58.843 141.43-131.43 141.43-72.586 0-131.43-63.32-131.43-141.43 0-78.109 58.843-141.43 131.43-141.43 72.586 0 131.43 63.32 131.43 141.43z" filter="url(#filter4569)" opacity=".5" transform="matrix(-1.0761 0 0 1 -2168.8 -598.98)"></path>        <path id="path6279" fill="#008c00" d="M54.286 333.79c0 78.109-58.843 141.43-131.43 141.43-72.586 0-131.43-63.32-131.43-141.43 0-78.109 58.843-141.43 131.43-141.43 72.586 0 131.43 63.32 131.43 141.43z" transform="matrix(-1.0761 0 0 1 -2155 -605.9)" style="--darkreader-inline-fill: #6aff6a;" data-darkreader-inline-fill=""></path>      </g>      <g id="g6281" transform="translate(1518.2 486.64) scale(.6866)">        <path id="path6283" fill="#000400" d="M54.286 333.79c0 78.109-58.843 141.43-131.43 141.43-72.586 0-131.43-63.32-131.43-141.43 0-78.109 58.843-141.43 131.43-141.43 72.586 0 131.43 63.32 131.43 141.43z" filter="url(#filter4655)" opacity=".5" transform="matrix(-1.0761 0 0 1 -2041.5 -534.81)" style="--darkreader-inline-fill: #e7e5e1;" data-darkreader-inline-fill=""></path>        <path id="path6285" fill="#007400" d="M54.286 333.79c0 78.109-58.843 141.43-131.43 141.43-72.586 0-131.43-63.32-131.43-141.43 0-78.109 58.843-141.43 131.43-141.43 72.586 0 131.43 63.32 131.43 141.43z" transform="matrix(-1.0761 0 0 1 -2027.7 -541.73)" style="--darkreader-inline-fill: #7bff7b;" data-darkreader-inline-fill=""></path>      </g>      <g id="g6287" transform="translate(1556.2 320.31) scale(.6866)">        <path id="path6289" d="M54.286 333.79c0 78.109-58.843 141.43-131.43 141.43-72.586 0-131.43-63.32-131.43-141.43 0-78.109 58.843-141.43 131.43-141.43 72.586 0 131.43 63.32 131.43 141.43z" filter="url(#filter4771)" opacity=".5" transform="matrix(-1.0761 0 0 1 -1999 -525.96)"></path>        <path id="path6291" fill="#007c00" d="M54.286 333.79c0 78.109-58.843 141.43-131.43 141.43-72.586 0-131.43-63.32-131.43-141.43 0-78.109 58.843-141.43 131.43-141.43 72.586 0 131.43 63.32 131.43 141.43z" transform="matrix(-1.0761 0 0 1 -1988.6 -519.03)" style="--darkreader-inline-fill: #75ff75;" data-darkreader-inline-fill=""></path>      </g>      <g id="g6293" transform="translate(1922.2 489.02) scale(.6866)">        <path id="path6295" d="M54.286 333.79c0 78.109-58.843 141.43-131.43 141.43-72.586 0-131.43-63.32-131.43-141.43 0-78.109 58.843-141.43 131.43-141.43 72.586 0 131.43 63.32 131.43 141.43z" filter="url(#filter4753)" opacity=".5" transform="matrix(-1.0761 0 0 1 -2324.3 -722.18)"></path>        <path id="path6297" fill="#006c00" d="M54.286 333.79c0 78.109-58.843 141.43-131.43 141.43-72.586 0-131.43-63.32-131.43-141.43 0-78.109 58.843-141.43 131.43-141.43 72.586 0 131.43 63.32 131.43 141.43z" transform="matrix(-1.0761 0 0 1 -2331.3 -708.34)" style="--darkreader-inline-fill: #80ff80;" data-darkreader-inline-fill=""></path>      </g>      <g id="g6299" transform="translate(1627.5 332.19) scale(.6866)">        <path id="path6301" d="M54.286 333.79c0 78.109-58.843 141.43-131.43 141.43-72.586 0-131.43-63.32-131.43-141.43 0-78.109 58.843-141.43 131.43-141.43 72.586 0 131.43 63.32 131.43 141.43z" filter="url(#filter4673)" opacity=".5" transform="matrix(-1.0761 0 0 1 -2197.6 -408.33)"></path>        <path id="path6303" fill="green" d="M54.286 333.79c0 78.109-58.843 141.43-131.43 141.43-72.586 0-131.43-63.32-131.43-141.43 0-78.109 58.843-141.43 131.43-141.43 72.586 0 131.43 63.32 131.43 141.43z" transform="matrix(-1.0761 0 0 1 -2183.7 -422.17)" style="--darkreader-inline-fill: #72ff72;" data-darkreader-inline-fill=""></path>      </g>      <g id="g6305" transform="translate(1732.1 579.31) scale(.6866)">        <path id="path6307" d="M54.286 333.79c0 78.109-58.843 141.43-131.43 141.43-72.586 0-131.43-63.32-131.43-141.43 0-78.109 58.843-141.43 131.43-141.43 72.586 0 131.43 63.32 131.43 141.43z" filter="url(#filter4733)" opacity=".5" transform="matrix(-1.0761 0 0 1 -2277.5 -809.66)"></path>        <path id="path6309" fill="url(#linearGradient6385)" d="M54.286 333.79c0 78.109-58.843 141.43-131.43 141.43-72.586 0-131.43-63.32-131.43-141.43 0-78.109 58.843-141.43 131.43-141.43 72.586 0 131.43 63.32 131.43 141.43z" transform="matrix(-1.0761 0 0 1 -2256.7 -809.66)"></path>      </g>      <g id="g6311" transform="translate(1523 491.39) scale(.6866)">        <path id="path6313" fill="#000400" d="M54.286 333.79c0 78.109-58.843 141.43-131.43 141.43-72.586 0-131.43-63.32-131.43-141.43 0-78.109 58.843-141.43 131.43-141.43 72.586 0 131.43 63.32 131.43 141.43z" filter="url(#filter4619)" opacity=".5" transform="matrix(1.0761 0 0 1 -1783 -443.73)" style="--darkreader-inline-fill: #e7e5e1;" data-darkreader-inline-fill=""></path>        <path id="path6315" fill="#390" d="M54.286 333.79c0 78.109-58.843 141.43-131.43 141.43-72.586 0-131.43-63.32-131.43-141.43 0-78.109 58.843-141.43 131.43-141.43 72.586 0 131.43 63.32 131.43 141.43z" transform="matrix(1.0761 0 0 1 -1769.2 -450.65)" style="--darkreader-inline-fill: #96ff61;" data-darkreader-inline-fill=""></path>      </g>      <g id="g6317" transform="translate(1945.9 541.29) scale(.6866)">        <path id="path6319" d="M54.286 333.79c0 78.109-58.843 141.43-131.43 141.43-72.586 0-131.43-63.32-131.43-141.43 0-78.109 58.843-141.43 131.43-141.43 72.586 0 131.43 63.32 131.43 141.43z" filter="url(#filter4897)" opacity=".5" transform="matrix(-1.0761 0 0 1 -2270.6 -661.16)"></path>        <path id="path6321" fill="url(#linearGradient6389)" d="M54.286 333.79c0 78.109-58.843 141.43-131.43 141.43-72.586 0-131.43-63.32-131.43-141.43 0-78.109 58.843-141.43 131.43-141.43 72.586 0 131.43 63.32 131.43 141.43z" transform="matrix(-1.0761 0 0 1 -2277.5 -647.32)"></path>      </g>      <g id="g6323" transform="translate(1582.4 370.21) scale(.6866)">        <path id="path6325" d="M54.286 333.79c0 78.109-58.843 141.43-131.43 141.43-72.586 0-131.43-63.32-131.43-141.43 0-78.109 58.843-141.43 131.43-141.43 72.586 0 131.43 63.32 131.43 141.43z" filter="url(#filter4691)" opacity=".5" transform="matrix(1.0761 0 0 1 -1920.8 -427.88)"></path>        <path id="path6327" fill="#390" d="M54.286 333.79c0 78.109-58.843 141.43-131.43 141.43-72.586 0-131.43-63.32-131.43-141.43 0-78.109 58.843-141.43 131.43-141.43 72.586 0 131.43 63.32 131.43 141.43z" transform="matrix(1.0761 0 0 1 -1907 -420.96)" style="--darkreader-inline-fill: #96ff61;" data-darkreader-inline-fill=""></path>      </g>      <g id="g6329" transform="translate(1727.3 515.15) scale(.6866)">        <path id="path6331" fill="#000400" d="M54.286 333.79c0 78.109-58.843 141.43-131.43 141.43-72.586 0-131.43-63.32-131.43-141.43 0-78.109 58.843-141.43 131.43-141.43 72.586 0 131.43 63.32 131.43 141.43z" filter="url(#filter4551)" opacity=".5" transform="matrix(-1.0761 0 0 1 -2229 -620.4)" style="--darkreader-inline-fill: #e7e5e1;" data-darkreader-inline-fill=""></path>        <path id="path6333" fill="#4a0" d="M54.286 333.79c0 78.109-58.843 141.43-131.43 141.43-72.586 0-131.43-63.32-131.43-141.43 0-78.109 58.843-141.43 131.43-141.43 72.586 0 131.43 63.32 131.43 141.43z" transform="matrix(-1.0761 0 0 1 -2208.2 -627.33)" style="--darkreader-inline-fill: #99ff55;" data-darkreader-inline-fill=""></path>      </g>      <g id="g6335" transform="translate(1748.7 310.8) scale(.6866)">        <path id="path6337" d="M54.286 333.79c0 78.109-58.843 141.43-131.43 141.43-72.586 0-131.43-63.32-131.43-141.43 0-78.109 58.843-141.43 131.43-141.43 72.586 0 131.43 63.32 131.43 141.43z" filter="url(#filter4709)" opacity=".5" transform="matrix(-1.0761 0 0 1 -2113.3 -405.63)"></path>        <path id="path6339" fill="#009400" d="M54.286 333.79c0 78.109-58.843 141.43-131.43 141.43-72.586 0-131.43-63.32-131.43-141.43 0-78.109 58.843-141.43 131.43-141.43 72.586 0 131.43 63.32 131.43 141.43z" transform="matrix(-1.0761 0 0 1 -2113.3 -391.79)" style="--darkreader-inline-fill: #64ff64;" data-darkreader-inline-fill=""></path>      </g>      <g id="g6341" transform="translate(1934 612.58) scale(.6866)">        <path id="path6343" d="M54.286 333.79c0 78.109-58.843 141.43-131.43 141.43-72.586 0-131.43-63.32-131.43-141.43 0-78.109 58.843-141.43 131.43-141.43 72.586 0 131.43 63.32 131.43 141.43z" filter="url(#filter4845)" opacity=".5" transform="matrix(-1.0761 0 0 1 -2221.9 -594.77)"></path>        <path id="path6345" fill="#2ca02c" d="M54.286 333.79c0 78.109-58.843 141.43-131.43 141.43-72.586 0-131.43-63.32-131.43-141.43 0-78.109 58.843-141.43 131.43-141.43 72.586 0 131.43 63.32 131.43 141.43z" transform="matrix(-1.0761 0 0 1 -2239.2 -598.23)" style="--darkreader-inline-fill: #67d567;" data-darkreader-inline-fill=""></path>      </g>      <g id="g6347" transform="translate(1812.9 517.53) scale(.6866)">        <path id="path6349" d="M54.286 333.79c0 78.109-58.843 141.43-131.43 141.43-72.586 0-131.43-63.32-131.43-141.43 0-78.109 58.843-141.43 131.43-141.43 72.586 0 131.43 63.32 131.43 141.43z" filter="url(#filter4789)" opacity=".5" transform="matrix(-1.0761 0 0 1 -2114.6 -553.24)"></path>        <path id="path6351" fill="#217821" d="M54.286 333.79c0 78.109-58.843 141.43-131.43 141.43-72.586 0-131.43-63.32-131.43-141.43 0-78.109 58.843-141.43 131.43-141.43 72.586 0 131.43 63.32 131.43 141.43z" transform="matrix(-1.0761 0 0 1 -2128.4 -553.24)" style="--darkreader-inline-fill: #83dd83;" data-darkreader-inline-fill=""></path>      </g>      <g id="g6353" transform="translate(1770.1 443.87) scale(.6866)">        <path id="path6355" d="M54.286 333.79c0 78.109-58.843 141.43-131.43 141.43-72.586 0-131.43-63.32-131.43-141.43 0-78.109 58.843-141.43 131.43-141.43 72.586 0 131.43 63.32 131.43 141.43z" filter="url(#filter4879)" opacity=".5" transform="matrix(-1.0761 -.0034064 -.0031655 .99999 -2225.2 -505.9)"></path>        <path id="path6357" fill="#217821" d="M54.286 333.79c0 78.109-58.843 141.43-131.43 141.43-72.586 0-131.43-63.32-131.43-141.43 0-78.109 58.843-141.43 131.43-141.43 72.586 0 131.43 63.32 131.43 141.43z" transform="matrix(-1.0761 -.0034064 -.0031655 .99999 -2225.2 -492.06)" style="--darkreader-inline-fill: #83dd83;" data-darkreader-inline-fill=""></path>      </g>      <g id="g6359" transform="translate(1746.3 679.11) scale(.6866)">        <path id="path6361" d="M54.286 333.79c0 78.109-58.843 141.43-131.43 141.43-72.586 0-131.43-63.32-131.43-141.43 0-78.109 58.843-141.43 131.43-141.43 72.586 0 131.43 63.32 131.43 141.43z" filter="url(#filter4527)" opacity=".5" transform="matrix(-1.0761 0 0 1 -2205.3 -679.54)"></path>        <path id="path6363" fill="#006400" d="M54.286 333.79c0 78.109-58.843 141.43-131.43 141.43-72.586 0-131.43-63.32-131.43-141.43 0-78.109 58.843-141.43 131.43-141.43 72.586 0 131.43 63.32 131.43 141.43z" transform="matrix(-1.0761 0 0 1 -2198.4 -693.39)" style="--darkreader-inline-fill: #c8c4bd;" data-darkreader-inline-fill=""></path>      </g>      <g id="g6365" transform="translate(1896 657.72) scale(.6866)">        <path id="path6367" d="M54.286 333.79c0 78.109-58.843 141.43-131.43 141.43-72.586 0-131.43-63.32-131.43-141.43 0-78.109 58.843-141.43 131.43-141.43 72.586 0 131.43 63.32 131.43 141.43z" filter="url(#filter4507)" opacity=".5" transform="matrix(1.0761 0 0 1 -2175.5 -790.62)"></path>        <path id="path6369" fill="#00ac00" d="M54.286 333.79c0 78.109-58.843 141.43-131.43 141.43-72.586 0-131.43-63.32-131.43-141.43 0-78.109 58.843-141.43 131.43-141.43 72.586 0 131.43 63.32 131.43 141.43z" transform="matrix(1.0761 0 0 1 -2168.6 -804.46)" style="--darkreader-inline-fill: #54ff54;" data-darkreader-inline-fill=""></path>      </g>      <g id="g6371" transform="translate(1900.8 1113.9) scale(.6866)">        <path id="path6373" d="M54.286 333.79c0 78.109-58.843 141.43-131.43 141.43-72.586 0-131.43-63.32-131.43-141.43 0-78.109 58.843-141.43 131.43-141.43 72.586 0 131.43 63.32 131.43 141.43z" filter="url(#filter4497)" opacity=".5" transform="matrix(-1.0761 0 0 1 -2266.2 -1264.2)"></path>        <path id="path6375" fill="#007800" d="M54.286 333.79c0 78.109-58.843 141.43-131.43 141.43-72.586 0-131.43-63.32-131.43-141.43 0-78.109 58.843-141.43 131.43-141.43 72.586 0 131.43 63.32 131.43 141.43z" transform="matrix(-1.0761 0 0 1 -2259.3 -1281.5)" style="--darkreader-inline-fill: #78ff78;" data-darkreader-inline-fill=""></path>      </g>      <g id="g6377" transform="translate(1299.6 512.78) scale(.6866)">        <path id="path6379" d="M54.286 333.79c0 78.109-58.843 141.43-131.43 141.43-72.586 0-131.43-63.32-131.43-141.43 0-78.109 58.843-141.43 131.43-141.43 72.586 0 131.43 63.32 131.43 141.43z" filter="url(#filter4481)" opacity=".34496" transform="matrix(-1.0761 0 0 1 -1450.1 -484.03)"></path>        <path id="path6381" fill="#009800" d="M54.286 333.79c0 78.109-58.843 141.43-131.43 141.43-72.586 0-131.43-63.32-131.43-141.43 0-78.109 58.843-141.43 131.43-141.43 72.586 0 131.43 63.32 131.43 141.43z" transform="matrix(-1.0761 0 0 1 -1432.8 -497.87)" style="--darkreader-inline-fill: #62ff62;" data-darkreader-inline-fill=""></path>      </g>      <path id="path6383" fill="url(#linearGradient6394)" d="M184.63 948.86c50.95-24.461 109.25-41.721 111.71-78.282 2.461-36.561 35.391-53.947 58.021-72.008 33.013-26.348 29.464-183.54 16.487-223.31-.82831-2.538-12.533-6.9893-28.862-12.25-3.3618-1.0832-81.823 34.747-85.522 33.605-1.598-.49344 40.2-18.368 49.713-23.472.90779-.48705-21.459-6.3082-20.538-6.7985 1.4131-.75222 26.117 3.8264 27.516 3.0867 9.8092-5.1882 18.582-9.7702 16.779-9.5426-11.746 1.4826-44.763-11.562-81.144-31.004-.70434-.37639-10.952-.55637-22.957-.70212-.83659-.0102-8.0143 5.0459-8.8653 5.0361-.69845-.008 4.9317-5.0822 4.2268-5.0902-16.317-.18491-33.981-.3459-34.92-.85929-.63744-.34827 8.3523-.89894 19.077-1.4875.69504-.0382-10.212-6.409-9.505-6.4475.69724-.0379 13.009 6.2568 13.715 6.2187 14.477-.78104 30.191-1.5909 29.351-2.0589-12.91-7.1927-26.036-15.081-38.607-23.315-1.0681-.69965-10.072-1.756-20.449-2.8749-.78019-.0841-9.9267 4.0107-10.72 3.926-.80394-.0859 6.7456-4.3513 5.9344-4.4375-13.495-1.4342-27.599-2.8974-28.934-3.7899-.85283-.57028 7.4066-.73298 16.711-.84913.98877-.0124-8.7574-8.3828-7.7546-8.3945.99598-.0117 12.741 8.3354 13.732 8.3235 9.8242-.11791 18.922-.26861 18.041-.86617-7.8903-5.3562-15.552-10.926-22.806-16.454-.35332-.26926-7.5492-1.1284-15.503-2.0528-.78018-.0907-7.538 3.9973-8.327 3.9059-.80868-.0937 4.3514-4.3669 3.5457-4.4603-8.4224-.97692-16.347-1.9109-16.714-2.1932-.79199-.6099 33.05 1.7663 32.268 1.1584-8.87-6.9006-17.037-13.647-24.148-19.734-.86703-.74214-19.033-5.0568-19.868-5.7784-.54489-.47092 16.231 2.645 15.701 2.1835-14.69-12.773-23.917-21.856-23.917-21.856s7.0661 4.5375 16.091 10.432c.59253.38699-2.3888-7.5788-1.7808-7.181.72999.47766 5.0524 9.3211 5.8001 9.8114 8.8935 5.8324 18.86 12.454 25.687 17.24 1.0844.7602-1.993-38.706-.90906-37.943 1.2919.9085 2.6516 12.479 4.0064 23.31.10183.814 7.3682-7.3318 7.4699-6.531.10079.79331-6.963 10.533-6.8624 11.304.97394 7.4603 1.9397 13.651 2.8701 14.307 14.925 10.53 30.311 21.437 46.007 31.63.67808.44031.071-17.12-.61939-35.856-.0481-1.3023-23.637-28.113-23.685-29.42-.0727-1.9653 23.395 24.557 23.324 22.61-.65934-17.993-1.2015-37.338-.54448-36.919.90199.57562 3.6525 27.013 6.1812 50.329.11205 1.0331 13.956-18.239 14.067-17.221.10815.99231-13.516 22.276-13.409 23.249 1.7252 15.723 3.2544 28.696 3.8858 29.09 26.94 16.824 54.691 30.958 82.5 37.009l-6.2968-30.462-13.575-5.5718-21.373 1.3959 17.676-2.9132-23.176-9.5127-16.731.0419 12.673-1.7076-21.758-8.9305 31.841 10.728-6.6298-17.258 8.7782 17.569 30.441 10.669-26.186-40.743-21.172-11.991 18.32 7.5524-17.014-26.472 10.654 13.274-1.8914-12.08 4.9041 15.834 16.782 20.908 2.6684-10.387-3.3926-11.294 4.2849 7.8206 3.7076-14.432-4.0284 31.488 19.199 29.099 1.7842-17.511-3.6293-9.2705 4.0124 5.51 1.5665-15.375 1.2095 24.203 7.2401-9.291-7.0717 12.66.85289 17.066 11.944 32.353 58.622 7.6046c3.4994-18.948.8023-25.412-2.4457-37.425-48.832-35.632-85.547-72.283-126.52-115.77-.51851-.55035-7.3609-2.5507-16.629-5.1077-.55088-.15199-32.14 11.937-32.707 11.781-.67967-.18662 29.659-12.619 28.959-12.81-20.791-5.6807-50.145-13.327-51.232-14.5-.77538-.8361 17.307 2.6476 34.178 5.8518.4342.0825-10.953-20.1-10.521-20.018.38271.0726 12.585 20.409 12.966 20.482 13.876 2.6298 26.243 4.9128 25.604 4.2137-8.4305-9.218-22.603-27.495-37.916-47.935-.97477-1.3012-60.806-15.362-61.789-16.679-.36775-.49271 17.209 2.6706 32.913 5.5813.96083.17809-8.2175-16.532-7.2752-16.356.96577.17967 9.5185 16.4 10.877 16.575 10.199 1.3123 20.346 4.2808 20.346 4.2808l-27.382-37.234-24.379-12.992s22.531 10.115 21.47 8.6573c-10.668-14.651-21.946-29.844-27.617-37.525 7.1858 6.6684 25.157 29.762 42.542 52.113.44444.57131 1.0309-2.8483 1.6507-7.217.0766-.54004-5.1234-13.338-5.046-13.901.0751-.54652 5.4277 11.142 5.5032 10.584.86876-6.4172 1.7504-13.231 2.359-12.449.78705 1.0113-1.9427 25.683-1.1623 26.685 13.512 17.347 28.392 36.824 33.973 42.373.81913.81455 4.5807-38.586 5.3997-37.771.72095.71752.73811 11.052.73981 21.598.00023 1.4109 6.755-8.1509 6.7563-6.7549.00069.85294-6.7526 12.675-6.7504 13.509.0224 8.46.13625 15.671.73427 16.266 16.141 16.07 32.279 32.141 48.715 47.322.9856.91035 2.5422-9.8663 4.1532-21.739.0959-.70661-8.6737-22.104-8.5775-22.816.133-.98492 9.1318 18.714 9.2648 17.728 1.7202-12.742 4.4735-24.07 4.4735-24.07s.35755 7.549-.40991 16.234c-.0738.83467 7.4484-6.335 7.3688-5.4703-.0255.27782-7.6505 8.5783-7.6766 8.8587-1.4539 15.649-3.6426 35.114-2.3051 36.293 18.467 16.282 45.244 41.965 65.042 54.256l12.302-22.223-6.767 26.937 32.518 19.207-2.7099-40.442-65.477-100.45-11.728-3.3401-19.103 1.4209 12.41-3.327-54.881-15.629 38.979 8.0198-13.313-22.062 19.961 23.43 24.592 5.0598-39.508-56.366-12.827-2.4602-19.782 5.1759 16.447-5.8156-29.917-5.738 24.545 2.3092-9.2139-12.251 12.263 13.122 15.534 1.7902-44.668-63.367-6.688-4.1132-12.578-1.8296 9.6808.0474-14.491-8.912 20.639 9.931-30.342-43.043 21.011 28.585-2.9715-13.075 5.4718 16.477 34.014 46.274.64387-6.8669-6.1364-16.024 6.5325 11.8 1.5786-16.836-.0349 31.93 36.297 49.675 3.3417-8.3916-2.7392-14.268 3.9283 11.282 6.4965-16.314-8.5928 30.758 95.994 129.01-.63057-59.402-18.557-18.715-34.095-6.7718 30.299 2.9935-30.92-40.989-29.549-14.197 26.727 10.456-40.243-53.348 29.544 35.943-.3048-22.472 2.6056 25.271 33.147 40.327 1.812-21.224 2.4899 26.559 27.306 28.083-7.2647-95.616-30.62-28.017-20.848-.26834-20.269 9.266 16.887-9.3095-44.791-.57652 33.214-1.044-12.036-16.542 14.101 15.967 30.081-1.3805-47.458-39.442-32.365-11.693 26.635 6.3385-44.147-41.252 30.027 25.088-1.8451-25.114 6.819 29.27 40.344 33.708-4.436-40.792-14.252-20.148 13.499 13.218-2.5499-23.448 8.3178 41.083 12.036-17.58-9.9989 26.895 2.6486 24.04 52.14 44.693-2.4852-41.59-36.008-37.436 35.386 27.028-1.347-22.543-40.084-51.617 20.049 22.919-2.9218-24.146 7.4324 29.302 15.153 17.322-3.6074-60.374-13.731-27.731 13.359 21.511-2.0761-34.744 4.4876 53.876 27.047-41.99-14.91 28.427 19.652-7.8544-22.098 12.518-8.3092 13.003 3.8174 58.318 23.113-27.819-22.596 34.018 2.075 24.911 32.952-29.295-10.414-53.686 14.316 49.537 48.345-46.943-25.802 29.51 29.576-4.4553-30.977 8.8341-56.204 53.672 7.25 88.696 22.961-22.361-1.895-27.153-7.3823-18.561 7.0011 13.1-2.054-29.431 4.5862 41.067 8.6245-14.843-8.252 18.179 1.5974 14.305 35.645-52.17-1.399-19.77-8.2294-17.928 7.8706 12.857-1.6964-23.973 5.637 45.619 21.994-32.191-1.1178-24.673 3.1662 21.675 12.136-17.763-23.605 38.391 35.018-19.434-19.663 12.197 14.328-1.7311-17.334 3.5959-14.623 9.0708-34.495 56.103 14.843-3.237 10.653-11.155-7.1657 10.395 15.532-3.3873-34.669 10.927-36.382 36.697 9.5085 101.78 29.498-47.9-14.114-61.048 9.474 28.211 4.4249-24.031-1.5619 32.556 5.6444 16.808 40.206-64.065-.8415-10.715-7.3087-13.71 7.0122 9.934-3.9193-49.907 6.4537 39.126 5.9438-17.228-4.9836 21.848 3.149 15.149 44.891-70.946-2.4304-32.355 4.8329 27.419 32.908-50.869-17.59 30.044 12.769-9.984-14.742 13.354-32.223 55.037 27.722-14.587 2.7768-6.6507-.6035-11.298 1.9922 7.9718 4.0025-9.5864-5.6896 17.771 29.679-15.128-16.429 10.131 11.137-.16221-13.726 1.7591-22.953 14.154 33.135-4.5735-17.792 3.2213 9.2674 2.8425-12.686-2.2236-15.197 2.7515-17.972 11.082-53.466 93.041 36.345-19.023-40.655 29.173-39.79 66.594 2.8881 38.635 26.765-19.189 10.662-24.035-1.3271-23.259 4.3558 16.431 10.605-23.908-15.234 48.972c30.303-22.926 56.254-48.027 81.071-73.696.4422-.45735-.6757-5.7163-2.54-13.272-.1673-.67816-15.539-13.196-15.718-13.909-.1706-.68053 14.852 10.445 14.672 9.7353-2.1585-8.5105-4.954-18.981-7.504-28.695-.302-1.1504-15.166-16.855-15.459-17.98-.24381-.93362 14.081 12.708 13.845 11.798-3.291-12.684-5.762-22.843-5.1431-23.488.726-.7573 10.908 33.832 14.803 46.73.2117.70087 11.52-20.1 11.731-19.402.4082 1.3503-10.283 24.191-9.8836 25.504 3.0893 10.152 5.8052 18.697 6.3934 18.08 11.432-11.993 32.982-35.273 53.048-56.671.418-.44574 1.3657-10.835 2.3792-22.472.058-.67366-11.653-17.045-11.594-17.726.1097-1.265 11.99 13.155 12.1 11.884 1.1469-13.247 2.2801-26.253 2.745-26.748.2821-.30044.077 8.5189-.2066 18.822-.012.41955 7.5758-8.4463 7.564-8.0223-.016.56337-7.6307 10.418-7.6467 10.987-.3823 13.602-.833 28.473-.4708 28.088 12.676-13.483 24.352-25.747 31.958-33.311-12.444 15.898-31.742 39.166-51.64 62.488-.4674.54784 18.376-6.0566 33.886-11.427.6983-.24177 6.9384-20.595 7.6211-20.831.9895-.34203-5.6689 19.436-4.7229 19.11 8.6326-2.9743 15.199-5.1833 14.92-4.8572-.2974.34782-4.4781 2.9044-12.817 6.2305-3.907 1.5583-8.2701 3.2855-12.69 5.0336-1.1562.45733 16.41 5.0775 15.253 5.5351-.6804.26913-20.086-3.6236-20.763-3.3559-13.196 5.221-25.404 10.076-25.822 10.564-19.917 23.233-39.898 45.895-53.723 60.709-1.0922 1.1704 19.625-2.3773 40.643-5.9936.6736-.11589 17.3-30.055 17.973-30.171.9771-.1681-13.999 29.488-13.026 29.32 19.881-3.4176 38.51-6.5676 37.459-5.4666-1.3288 1.3915-33.413 8.2617-59.647 14.084-.9881.21929 19.533 9.4535 18.563 9.6695-.89.19826-23.272-8.6214-24.143-8.4266-15.316 3.4261-27.494 6.2907-28.313 7.128-26.048 26.63-54.233 51.658-85.905 74.07 3.9272 19.002 2.7154 37.257 11.546 48.581l53.473-30.932-4.0786-30.214-10.346-17.715 9.4184 10.842-2.4942-18.477 7.5285 32.695 19.084-24.153-16.981 29.945 5.16 14.211c18.008-4.7104 34.261-13.808 49.572-25.259.907-.67835 1.086-7.1634 1.0456-15.385-.01-1.1286-20.822-16.855-20.835-18.038-.01-.91337 20.786 12.725 20.774 11.79-.1876-14.176-.6216-36.521.8073-37.68 1.1008-.89348 2.7237 18.131 4.3236 30.41.1794 1.3765 15.617-22.222 15.795-20.878.1577 1.1907-14.944 27.329-14.788 28.465 1.1258 8.2202 2.1802 14.63 2.9606 13.96 13.354-11.47 27.062-25.258 40.838-38.986.4456-.44414.6889-6.7576.9138-13.608.032-.98471-7.7826-9.8274-7.7505-10.818.032-.98978 7.9111 5.872 7.9441 4.9075.2098-6.1418.4482-11.452.8559-11.857 1.1497-1.1435 3.2806 26.16 4.4309 25.021 6.7535-6.6871 13.512-13.272 20.243-19.476 1.0235-.9433 8.9123-30.323 9.9343-31.247.6866-.62123-5.4931 27.207-4.8073 26.595 4.1384-3.693 24.937-28.793 29.04-32.077-1.4174 4.3369-25.602 35.222-34.663 45.54-.7629.86884 22.985-8.0637 22.202-7.1829-1.0553 1.1884-26.647 12.194-27.726 13.394-16.139 17.953-34.163 36.571-31.786 36.436 13.43-1.4734 24.78-2.6948 34.289-3.6929 1.3296-.13957 19.298-16.949 20.556-17.08 1.3338-.13876-14.047 16.402-12.792 16.273 99.838-10.281-46.778 9.3117-48.899 11.382-25.03 24.432-54.305 48.702-82.463 60.558-1.6956.71394 16.322 4.6954 37.819 9.0785.5635.1149 9.8521-6.6475 19.286-13.523.7387-.5384 4.421-22.656 5.1575-23.193 1.3404-.97652-2.2342 21.596-.94 20.656 7.3776-5.3587 15.562-11.767 16.027-11.673 1.1047.22362-33.85 28.884-32.734 29.109 28.238 5.6819 59.417 11.534 59.417 11.534s-108.28-16.831-111.5-13.788c-17.727 16.79-45.079 30.405-45.253 33.517-2.5358 45.295 5.8162 214.82 50.633 228.38 28.831 8.7249 36.148 8.3444 44.299 45.631 8.1502 37.286 74.868 71.987 128.54 94.954-47.029-29.393-116.27-20.618-139.41-76.418-23.141-55.8-28.021-40.029-48.918-41.285 21.3 24.568 23.07 41.056 18.299 64.583-4.7716 23.527-3.2695 33.745 17.238 60.84s22.761 73.322 31.162 109.98c-12.763-37.339-18.511-87.253-45.596-110.19s-25.568-38.432-19.422-61.779c6.1463-23.346-8.9879-36.265-29.145-55.591-2.2129 20.916-17.536 47.79 3.8255 69.469 21.361 21.679 21.137 27.633.38731 53.753-20.749 26.12-1.9945 70.235 3.6341 106.3-7.257-34.071-38.278-72.415-19.493-102.78 18.785-30.367 5.1341-36.472-10.559-55.675s-12.848-45.04-13.106-69.102c-14.503 17.522-28.843 32.891-23.509 55.9 5.3334 23.008 2.028 36.324-24.929 59.276s-29.147 63.152-39.839 94.728c4.7819-33.297 2.3619-73.81 27.236-98.049s28.743-41.374 17.693-63.694 4.8188-34.159 13.923-50.123c-23.276-11.753-44.062-5.0174-63.109 47.004-19.046 52.021-85.718 46.013-125.22 70.699z"></path>      <path id="path6501" d="M168.03 954.24c50.95-24.461 109.25-41.721 111.71-78.282 2.461-36.561 35.391-53.947 58.021-72.008 33.013-26.348 29.464-183.54 16.487-223.31-.82831-2.538-12.533-6.9893-28.862-12.25-3.3618-1.0832-81.823 34.747-85.522 33.605-1.598-.49344 40.2-18.368 49.713-23.472.90779-.48705-21.459-6.3082-20.538-6.7985 1.4131-.75222 26.117 3.8264 27.516 3.0867 9.8092-5.1882 18.582-9.7702 16.779-9.5426-11.746 1.4826-44.764-11.562-81.144-31.004-.70434-.37639-10.952-.55637-22.957-.70212-.83659-.0102-8.0143 5.0459-8.8653 5.0361-.69845-.008 4.9317-5.0822 4.2268-5.0902-16.317-.18491-33.981-.3459-34.92-.85929-.63744-.34827 8.3523-.89894 19.077-1.4875.69504-.0382-10.212-6.409-9.505-6.4475.69724-.0379 13.009 6.2568 13.715 6.2187 14.477-.78104 30.191-1.5909 29.351-2.0589-12.91-7.1927-26.036-15.081-38.607-23.315-1.0681-.69965-10.072-1.756-20.449-2.8749-.78019-.0841-9.9267 4.0107-10.72 3.926-.80394-.0859 6.7456-4.3513 5.9344-4.4375-13.495-1.4342-27.599-2.8974-28.934-3.7899-.85283-.57028 7.4066-.73298 16.711-.84913.98877-.0124-8.7574-8.3828-7.7546-8.3945.99598-.0117 12.741 8.3354 13.732 8.3235 9.8242-.11791 18.922-.26861 18.041-.86617-7.8903-5.3562-15.552-10.926-22.806-16.454-.35332-.26926-7.5492-1.1284-15.503-2.0528-.78018-.0907-7.538 3.9973-8.327 3.9059-.80868-.0937 4.3514-4.3669 3.5457-4.4603-8.4224-.97692-16.347-1.9109-16.714-2.1932-.79199-.6099 33.05 1.7663 32.268 1.1584-8.87-6.9006-17.037-13.647-24.148-19.734-.86703-.74214-19.033-5.0568-19.868-5.7784-.54489-.47092 16.231 2.645 15.701 2.1835-14.69-12.773-23.917-21.856-23.917-21.856s7.0661 4.5375 16.091 10.432c.59253.38699-2.3888-7.5788-1.7808-7.181.72999.47766 5.0524 9.3211 5.8001 9.8114 8.8935 5.8324 18.86 12.454 25.687 17.24 1.0844.7602-1.993-38.706-.90906-37.943 1.2919.9085 2.6516 12.479 4.0064 23.31.10183.814 7.3682-7.3318 7.4699-6.531.10079.79331-6.963 10.533-6.8624 11.304.97394 7.4603 1.9397 13.651 2.8701 14.307 14.925 10.53 30.311 21.437 46.007 31.63.67808.44031.071-17.12-.61939-35.856-.0481-1.3023-23.637-28.113-23.685-29.42-.0727-1.9653 23.395 24.557 23.324 22.61-.65934-17.993-1.2015-37.338-.54448-36.919.90199.57562 3.6525 27.013 6.1812 50.329.11205 1.0331 13.956-18.239 14.067-17.221.10815.99231-13.516 22.276-13.409 23.249 1.7252 15.723 3.2544 28.696 3.8858 29.09 26.94 16.824 54.691 30.958 82.5 37.009l-6.2968-30.462-13.575-5.5718-21.373 1.3959 17.676-2.9132-23.176-9.5127-16.731.0419 12.673-1.7076-21.758-8.9305 31.841 10.728-6.6298-17.258 8.7782 17.569 30.441 10.669-26.186-40.743-21.172-11.991 18.32 7.5524-17.014-26.472 10.654 13.274-1.8914-12.08 4.9041 15.834 16.782 20.908 2.6684-10.387-3.3926-11.294 4.2849 7.8206 3.7076-14.432-4.0284 31.488 19.199 29.099 1.7842-17.511-3.6293-9.2705 4.0124 5.51 1.5665-15.375 1.2095 24.203 7.2401-9.291-7.0717 12.66.85289 17.066 11.944 32.353 58.622 7.6046c3.4994-18.948.8023-25.412-2.4457-37.425-48.832-35.632-85.547-72.283-126.52-115.77-.51851-.55035-7.3609-2.5507-16.629-5.1077-.55088-.15199-32.14 11.937-32.707 11.781-.67967-.18662 29.659-12.619 28.959-12.81-20.791-5.6807-50.145-13.327-51.232-14.5-.77538-.8361 17.307 2.6476 34.178 5.8518.4342.0825-10.953-20.1-10.521-20.018.38271.0726 12.585 20.409 12.966 20.482 13.876 2.6298 26.243 4.9128 25.604 4.2137-8.4305-9.218-22.603-27.495-37.916-47.935-.97477-1.3012-60.806-15.362-61.789-16.679-.36775-.49271 17.209 2.6706 32.913 5.5813.96083.17809-8.2175-16.532-7.2752-16.356.96577.17967 9.5185 16.4 10.877 16.575 10.199 1.3123 20.346 4.2808 20.346 4.2808l-27.38-37.24-24.38-12.99s22.531 10.115 21.47 8.6573c-10.668-14.651-21.946-29.844-27.617-37.525 7.1858 6.6684 25.157 29.762 42.542 52.113.44444.57131 1.0309-2.8483 1.6507-7.217.0766-.54004-5.1234-13.338-5.046-13.901.0751-.54652 5.4277 11.142 5.5032 10.584.86876-6.4172 1.7504-13.231 2.359-12.449.78705 1.0113-1.9427 25.683-1.1623 26.685 13.512 17.347 28.392 36.824 33.973 42.373.81913.81455 4.5807-38.586 5.3997-37.771.72095.71752.73811 11.052.73981 21.598.00023 1.4109 6.755-8.1509 6.7563-6.7549.00069.85294-6.7526 12.675-6.7504 13.509.0224 8.46.13625 15.671.73427 16.266 16.141 16.07 32.279 32.141 48.715 47.322.9856.91035 2.5422-9.8663 4.1532-21.739.0959-.70661-8.6737-22.104-8.5775-22.816.133-.98492 9.1318 18.714 9.2648 17.728 1.7202-12.742 4.4735-24.07 4.4735-24.07s.35755 7.549-.40991 16.234c-.0738.83467 7.4484-6.335 7.3688-5.4703-.0255.27782-7.6505 8.5783-7.6766 8.8587-1.4539 15.649-3.6426 35.114-2.3051 36.293 18.467 16.282 45.244 41.965 65.042 54.256l12.302-22.223-6.767 26.937 32.518 19.207-2.7099-40.442-65.477-100.45-11.728-3.3401-19.103 1.4209 12.41-3.327-54.881-15.629 38.979 8.0198-13.313-22.062 19.961 23.43 24.592 5.0598-39.508-56.366-12.827-2.4602-19.782 5.1759 16.447-5.8156-29.917-5.738 24.545 2.3092-9.2139-12.251 12.263 13.122 15.534 1.7902-44.668-63.367-6.688-4.1132-12.578-1.8296 9.6808.0474-14.491-8.912 20.639 9.931-30.342-43.043 21.011 28.585-2.9715-13.075 5.4718 16.477 34.014 46.274.64387-6.8669-6.1364-16.024 6.5325 11.8 1.5786-16.836-.0349 31.93 36.297 49.675 3.3417-8.3916-2.7392-14.268 3.9283 11.282 6.4965-16.314-8.5928 30.758 95.994 129.01-.63057-59.402-18.557-18.715-34.095-6.7718 30.299 2.9935-30.92-40.989-29.549-14.197 26.727 10.456-40.243-53.348 29.544 35.943-.3048-22.472 2.6056 25.271 33.147 40.327 1.812-21.224 2.4899 26.559 27.306 28.083-7.2647-95.616-30.62-28.017-20.848-.26834-20.27 9.266 16.887-9.3095-44.791-.57652 33.214-1.044-12.036-16.542 14.101 15.967 30.081-1.3805-47.458-39.442-32.365-11.693 26.635 6.3385-44.147-41.252 30.027 25.088-1.8451-25.114 6.819 29.27 40.344 33.708-4.436-40.792-14.252-20.148 13.499 13.218-2.5499-23.448 8.3178 41.083 12.036-17.58-9.9989 26.895 2.6486 24.04 52.14 44.693-2.4852-41.59-36.008-37.436 35.386 27.028-1.347-22.543-40.084-51.617 20.049 22.919-2.9218-24.146 7.4324 29.302 15.153 17.322-3.6074-60.374-13.731-27.731 13.359 21.511-2.0761-34.744 4.4876 53.876 27.047-41.99-14.91 28.427 19.652-7.8544-22.098 12.518-8.3092 13.003 3.8174 58.318 23.113-27.819-22.596 34.018 2.075 24.911 32.952-29.295-10.414-53.686 14.316 49.537 48.345-46.943-25.802 29.51 29.576-4.4553-30.977 8.8341-56.204 53.672 7.25 88.696 22.961-22.361-1.895-27.153-7.3823-18.561 7.0011 13.1-2.054-29.431 4.5862 41.067 8.6245-14.843-8.252 18.179 1.5974 14.305 35.645-52.17-1.399-19.77-8.2294-17.928 7.8706 12.857-1.6964-23.973 5.637 45.619 21.994-32.191-1.1178-24.673 3.1662 21.675 12.136-17.763-23.605 38.391 35.018-19.434-19.663 12.197 14.328-1.7311-17.334 3.5959-14.623 9.0708-34.495 56.103 14.843-3.237 10.653-11.155-7.1657 10.395 15.532-3.3873-34.669 10.927-36.382 36.697 9.5085 101.78 29.498-47.9-14.114-61.048 9.474 28.211 4.4249-24.031-1.5619 32.556 5.6444 16.808 40.206-64.065-.8415-10.715-7.3087-13.71 7.0122 9.934-3.9193-49.907 6.4537 39.126 5.9438-17.228-4.9836 21.848 3.149 15.149 44.891-70.946-2.4304-32.355 4.833 27.419 32.908-50.869-17.59 30.044 12.769-9.984-14.742 13.354-32.223 55.037 27.722-14.587 2.7768-6.6507-.60346-11.298 1.9922 7.9718 4.0025-9.5864-5.6896 17.771 29.679-15.128-16.429 10.131 11.137-.16221-13.726 1.7591-22.953 14.154 33.135-4.5735-17.792 3.2213 9.2674 2.8425-12.686-2.2236-15.197 2.7515-17.972 11.082-53.466 93.041 36.345-19.023-40.655 29.173-39.79 66.594 2.8881 38.635 26.765-19.189 10.662-24.035-1.3271-23.259 4.3558 16.431 10.605-23.908-15.234 48.972c30.303-22.926 56.254-48.027 81.071-73.696.44217-.45735-.67575-5.7163-2.54-13.272-.16733-.67816-15.539-13.196-15.718-13.909-.17056-.68053 14.852 10.445 14.672 9.7353-2.1585-8.5105-4.954-18.981-7.504-28.695-.30197-1.1504-15.166-16.855-15.459-17.98-.24381-.93362 14.081 12.708 13.845 11.798-3.291-12.684-5.762-22.843-5.1431-23.488.72601-.7573 10.908 33.832 14.803 46.73.21168.70087 11.52-20.1 11.731-19.402.40819 1.3503-10.283 24.191-9.8836 25.504 3.0894 10.152 5.8052 18.697 6.3935 18.08 11.432-11.993 32.981-35.273 53.048-56.671.418-.44574 1.3657-10.835 2.3793-22.472.0584-.67366-11.653-17.045-11.594-17.726.10972-1.265 11.99 13.155 12.1 11.884 1.147-13.247 2.2801-26.253 2.745-26.748.28213-.30044.0775 8.5189-.20659 18.822-.0117.41955 7.5758-8.4463 7.564-8.0223-.0158.56337-7.6307 10.418-7.6467 10.987-.3823 13.602-.83305 28.473-.47087 28.088 12.676-13.483 24.352-25.747 31.958-33.311-12.444 15.898-31.742 39.166-51.64 62.488-.46743.54784 18.376-6.0566 33.886-11.427.69834-.24177 6.9384-20.595 7.6211-20.831.98946-.34203-5.6689 19.436-4.7228 19.11 8.6326-2.9743 15.199-5.1833 14.92-4.8572-.29737.34782-4.4782 2.9044-12.817 6.2305-3.907 1.5583-8.2702 3.2855-12.69 5.0336-1.1562.45733 16.41 5.0775 15.253 5.5351-.68042.26913-20.086-3.6236-20.763-3.3559-13.196 5.221-25.404 10.076-25.822 10.564-19.917 23.233-39.898 45.895-53.723 60.709-1.0922 1.1704 19.625-2.3773 40.643-5.9936.67356-.11589 17.3-30.055 17.973-30.171.97704-.1681-13.999 29.488-13.026 29.32 19.881-3.4176 38.51-6.5676 37.459-5.4666-1.3287 1.3915-33.413 8.2617-59.647 14.084-.98808.21929 19.533 9.4535 18.563 9.6695-.89004.19826-23.272-8.6214-24.143-8.4266-15.316 3.4261-27.494 6.2907-28.313 7.128-26.048 26.63-54.233 51.658-85.905 74.07 3.9272 19.002 2.7154 37.257 11.546 48.581l53.473-30.932-4.0786-30.214-10.346-17.715 9.4184 10.842-2.4942-18.477 7.5285 32.695 19.084-24.153-16.981 29.945 5.16 14.211c18.008-4.7104 34.261-13.808 49.572-25.259.907-.67835 1.0859-7.1634 1.0456-15.385-.007-1.1286-20.822-16.855-20.835-18.038-.01-.91337 20.786 12.725 20.774 11.79-.18765-14.176-.62165-36.521.80723-37.68 1.1008-.89348 2.7238 18.131 4.3237 30.41.17934 1.3765 15.617-22.222 15.795-20.878.15771 1.1907-14.944 27.329-14.788 28.465 1.1258 8.2202 2.1802 14.63 2.9606 13.96 13.354-11.47 27.062-25.258 40.838-38.986.4456-.44414.68894-6.7576.9138-13.608.0323-.98471-7.7826-9.8274-7.7505-10.818.0323-.98978 7.9111 5.872 7.9441 4.9075.20976-6.1418.44821-11.452.85585-11.857 1.1497-1.1435 3.2806 26.16 4.4309 25.021 6.7535-6.6871 13.513-13.272 20.243-19.476 1.0234-.9433 8.9122-30.323 9.9342-31.247.68667-.62123-5.4931 27.207-4.8072 26.595 4.1383-3.693 24.937-28.793 29.04-32.077-1.4174 4.3369-25.602 35.222-34.663 45.54-.76295.86884 22.985-8.0637 22.202-7.1829-1.0553 1.1884-26.647 12.194-27.726 13.394-16.139 17.953-34.163 36.571-31.786 36.436 13.43-1.4734 24.78-2.6948 34.289-3.6929 1.3296-.13957 19.298-16.949 20.556-17.08 1.3337-.13876-14.047 16.402-12.792 16.273 99.838-10.281-46.778 9.3117-48.899 11.382-25.03 24.432-54.305 48.702-82.463 60.558-1.6956.71394 16.322 4.6954 37.819 9.0785.56349.1149 9.8522-6.6475 19.286-13.523.73879-.5384 4.4211-22.656 5.1575-23.193 1.3404-.97652-2.2342 21.596-.94002 20.656 7.3776-5.3587 15.562-11.767 16.027-11.673 1.1047.22362-33.85 28.884-32.734 29.109 28.238 5.6819 59.417 11.534 59.417 11.534s-108.28-16.831-111.5-13.788c-17.727 16.79-45.079 30.405-45.253 33.517-2.5358 45.295 5.8162 214.82 50.633 228.38 28.831 8.7249 36.148 8.3444 44.299 45.631 8.1502 37.286 74.868 71.987 128.54 94.954-47.029-29.393-116.27-20.618-139.41-76.418-23.141-55.8-28.021-40.029-48.918-41.285 21.3 24.568 23.07 41.056 18.299 64.583-4.7716 23.527-3.2695 33.745 17.238 60.84s22.761 73.322 31.162 109.98c-12.763-37.339-18.511-87.253-45.596-110.19s-25.568-38.432-19.422-61.779c6.1463-23.346-8.9879-36.265-29.145-55.591-2.2129 20.916-17.536 47.79 3.8255 69.469 21.361 21.679 21.137 27.633.38731 53.753-20.749 26.12-1.9945 70.235 3.6341 106.3-7.257-34.071-38.278-72.415-19.493-102.78 18.785-30.367 5.1341-36.472-10.559-55.675s-12.848-45.04-13.106-69.102c-14.503 17.522-28.843 32.891-23.509 55.9 5.3334 23.008 2.028 36.324-24.929 59.276s-29.147 63.152-39.839 94.728c4.7819-33.297 2.3619-73.81 27.236-98.049s28.743-41.374 17.693-63.694 4.8188-34.159 13.923-50.123c-23.276-11.753-44.062-5.0174-63.109 47.004-19.046 52.021-85.718 46.013-125.22 70.699z" filter="url(#filter6551)" opacity=".33"></path>    </g>  </g></svg>
