<svg version="1.1" id="Layer_1" xmlns="http://www.w3.org/2000/svg" xmlns:xlink="http://www.w3.org/1999/xlink" x="0px" y="0px" style="enable-background:new 0 0 512 512;" xml:space="preserve" viewBox="10.18 0 491.63 512">
<g>
	<path style="fill: rgb(104, 53, 32); --darkreader-inline-fill: #dda68f;" d="M99.172,65.555c-4.586,0-8.303-3.716-8.303-8.303c0-19.214,5.656-37.747,16.357-53.594   c2.566-3.8,7.726-4.801,11.527-2.235c3.8,2.566,4.8,7.727,2.235,11.527c-8.841,13.092-13.515,28.412-13.515,44.302   C107.475,61.837,103.758,65.555,99.172,65.555z" data-darkreader-inline-fill=""/>
	<path style="fill: rgb(104, 53, 32); --darkreader-inline-fill: #dda68f;" d="M256.001,65.555c-4.586,0-8.303-3.716-8.303-8.303c0-19.214,5.656-37.747,16.357-53.594   c2.566-3.8,7.726-4.801,11.527-2.235c3.8,2.566,4.8,7.727,2.235,11.527c-8.841,13.092-13.515,28.412-13.515,44.302   C264.304,61.837,260.588,65.555,256.001,65.555z" data-darkreader-inline-fill=""/>
	<path style="fill: rgb(104, 53, 32); --darkreader-inline-fill: #dda68f;" d="M412.83,65.555c-4.586,0-8.303-3.716-8.303-8.303c0-19.215,5.656-37.749,16.356-53.594   c2.566-3.8,7.726-4.801,11.527-2.235c3.8,2.566,4.8,7.727,2.235,11.527c-8.841,13.092-13.513,28.411-13.513,44.302   C421.133,61.837,417.417,65.555,412.83,65.555z" data-darkreader-inline-fill=""/>
</g>
<g>
	<polygon style="fill: rgb(252, 209, 151); --darkreader-inline-fill: #fbc985;" points="206.842,219.368 210.717,478.789 120.14,500.93 86.387,197.228  " data-darkreader-inline-fill=""/>
	<polygon style="fill: rgb(252, 209, 151); --darkreader-inline-fill: #fbc985;" points="403.473,219.368 391.871,478.789 301.294,500.93 283.017,197.228  " data-darkreader-inline-fill=""/>
</g>
<g>
	<polygon style="fill: rgb(250, 179, 82); --darkreader-inline-fill: #fab454;" points="501.788,219.368 482.448,478.789 437.159,500.93 391.871,478.789 403.473,219.368    452.63,197.228  " data-darkreader-inline-fill=""/>
	<polygon style="fill: rgb(250, 179, 82); --darkreader-inline-fill: #fab454;" points="305.158,219.368 301.294,478.789 256.006,500.93 210.717,478.789 206.842,219.368    256,197.228  " data-darkreader-inline-fill=""/>
	<polygon style="fill: rgb(250, 179, 82); --darkreader-inline-fill: #fab454;" points="108.527,219.368 120.14,478.789 74.852,500.93 29.563,478.789 10.212,219.368    59.37,197.228  " data-darkreader-inline-fill=""/>
</g>
<path style="fill: rgb(196, 18, 22); --darkreader-inline-fill: #ee474b;" d="M334.416,86.891c0,5.026-0.841,9.841-2.369,14.358l-17.48,51.698L256,175.087l-58.567-22.141  l-17.48-51.698c-1.528-4.517-2.369-9.332-2.369-14.358c0-24.753,20.059-44.812,44.812-44.812c13.384,0,25.395,5.867,33.609,15.177  c8.203-9.31,20.214-15.177,33.598-15.177C314.357,42.078,334.416,62.137,334.416,86.891z" data-darkreader-inline-fill=""/>
<g>
	<path style="fill: rgb(249, 38, 41); --darkreader-inline-fill: #f93538;" d="M491.249,86.891c0,5.026-0.841,9.841-2.369,14.358l-17.48,51.698l-58.567,22.141l-58.567-22.141   l-17.491-51.698c-1.517-4.517-2.358-9.332-2.358-14.358c0-24.753,20.059-44.812,44.801-44.812c13.384,0,25.406,5.867,33.609,15.177   c8.214-9.31,20.225-15.177,33.609-15.177C471.178,42.078,491.249,62.137,491.249,86.891z" data-darkreader-inline-fill=""/>
	<path style="fill: rgb(249, 38, 41); --darkreader-inline-fill: #f93538;" d="M177.584,86.891c0,5.026-0.841,9.841-2.358,14.358l-17.491,51.698l-58.562,22.141l-58.562-22.141   L23.12,101.249c-1.528-4.517-2.358-9.332-2.358-14.358c0-24.753,20.059-44.812,44.801-44.812c13.384,0,25.395,5.867,33.609,15.177   c8.214-9.31,20.225-15.177,33.609-15.177C157.524,42.078,177.584,62.137,177.584,86.891z" data-darkreader-inline-fill=""/>
</g>
<g>
	<rect x="10.212" y="152.947" style="fill: rgb(245, 142, 66); --darkreader-inline-fill: #f5934a;" width="491.575" height="66.422" data-darkreader-inline-fill=""/>
	<rect x="29.563" y="478.789" style="fill: rgb(245, 142, 66); --darkreader-inline-fill: #f5934a;" width="452.885" height="33.211" data-darkreader-inline-fill=""/>
</g>
<g>
</g>
<g>
</g>
<g>
</g>
<g>
</g>
<g>
</g>
<g>
</g>
<g>
</g>
<g>
</g>
<g>
</g>
<g>
</g>
<g>
</g>
<g>
</g>
<g>
</g>
<g>
</g>
<g>
</g>
</svg>
