<svg xmlns="http://www.w3.org/2000/svg" xmlns:xlink="http://www.w3.org/1999/xlink" id="svg2" width="210mm" height="297mm" version="1.1" viewBox="0 0 744.09449 1052.3622">
  <defs id="defs4">
    <radialGradient xlink:href="#linearGradient13118" id="radialGradient13124" cx="-103.26369" cy="206.96295" r="155.46289" fx="-103.26369" fy="206.96295" gradientTransform="matrix(1 0 0 .66423 0 69.49121)" gradientUnits="userSpaceOnUse"/>
    <radialGradient xlink:href="#linearGradient13118" id="radialGradient13260" cx="-103.26369" cy="206.96295" r="155.46289" fx="-103.26369" fy="206.96295" gradientTransform="matrix(1 0 0 .66423 0 69.49121)" gradientUnits="userSpaceOnUse"/>
    <radialGradient xlink:href="#linearGradient13118" id="radialGradient13270" cx="-103.26369" cy="206.96295" r="155.46289" fx="-103.26369" fy="206.96295" gradientTransform="matrix(1 0 0 .66423 0 69.49121)" gradientUnits="userSpaceOnUse"/>
    <radialGradient xlink:href="#linearGradient13118" id="radialGradient13280" cx="-103.26369" cy="206.96295" r="155.46289" fx="-103.26369" fy="206.96295" gradientTransform="matrix(1 0 0 .66423 0 69.49121)" gradientUnits="userSpaceOnUse"/>
    <radialGradient xlink:href="#linearGradient13118" id="radialGradient13290" cx="-103.26369" cy="206.96295" r="155.46289" fx="-103.26369" fy="206.96295" gradientTransform="matrix(1 0 0 .66423 0 69.49121)" gradientUnits="userSpaceOnUse"/>
    <radialGradient xlink:href="#linearGradient13118" id="radialGradient13300" cx="-103.26369" cy="206.96295" r="155.46289" fx="-103.26369" fy="206.96295" gradientTransform="matrix(1 0 0 .66423 0 69.49121)" gradientUnits="userSpaceOnUse"/>
    <radialGradient xlink:href="#linearGradient13118" id="radialGradient13310" cx="-103.26369" cy="206.96295" r="155.46289" fx="-103.26369" fy="206.96295" gradientTransform="matrix(1 0 0 .66423 0 69.49121)" gradientUnits="userSpaceOnUse"/>
    <radialGradient xlink:href="#linearGradient13118" id="radialGradient13320" cx="-103.26369" cy="206.96295" r="155.46289" fx="-103.26369" fy="206.96295" gradientTransform="matrix(1 0 0 .66423 0 69.49121)" gradientUnits="userSpaceOnUse"/>
    <radialGradient xlink:href="#linearGradient13118" id="radialGradient13330" cx="-103.26369" cy="206.96295" r="155.46289" fx="-103.26369" fy="206.96295" gradientTransform="matrix(1 0 0 .66423 0 69.49121)" gradientUnits="userSpaceOnUse"/>
    <radialGradient xlink:href="#linearGradient13118" id="radialGradient13486" cx="-103.26369" cy="206.96295" r="155.46289" fx="-103.26369" fy="206.96295" gradientTransform="matrix(1 0 0 .66423 0 69.49121)" gradientUnits="userSpaceOnUse"/>
    <radialGradient xlink:href="#linearGradient13118" id="radialGradient13496" cx="-103.26369" cy="206.96295" r="155.46289" fx="-103.26369" fy="206.96295" gradientTransform="matrix(1 0 0 .66423 0 69.49121)" gradientUnits="userSpaceOnUse"/>
    <radialGradient xlink:href="#linearGradient13118" id="radialGradient13506" cx="-103.26369" cy="206.96295" r="155.46289" fx="-103.26369" fy="206.96295" gradientTransform="matrix(1 0 0 .66423 0 69.49121)" gradientUnits="userSpaceOnUse"/>
    <radialGradient xlink:href="#linearGradient13118" id="radialGradient13516" cx="-103.26369" cy="206.96295" r="155.46289" fx="-103.26369" fy="206.96295" gradientTransform="matrix(1 0 0 .66423 0 69.49121)" gradientUnits="userSpaceOnUse"/>
    <radialGradient xlink:href="#linearGradient13118" id="radialGradient13526" cx="-103.26369" cy="206.96295" r="155.46289" fx="-103.26369" fy="206.96295" gradientTransform="matrix(1 0 0 .66423 0 69.49121)" gradientUnits="userSpaceOnUse"/>
    <radialGradient xlink:href="#linearGradient13118" id="radialGradient13536" cx="-103.26369" cy="206.96295" r="155.46289" fx="-103.26369" fy="206.96295" gradientTransform="matrix(1 0 0 .66423 0 69.49121)" gradientUnits="userSpaceOnUse"/>
    <radialGradient xlink:href="#linearGradient13118" id="radialGradient13546" cx="-103.26369" cy="206.96295" r="155.46289" fx="-103.26369" fy="206.96295" gradientTransform="matrix(1 0 0 .66423 0 69.49121)" gradientUnits="userSpaceOnUse"/>
    <radialGradient xlink:href="#linearGradient13118" id="radialGradient13556" cx="-103.26369" cy="206.96295" r="155.46289" fx="-103.26369" fy="206.96295" gradientTransform="matrix(1 0 0 .66423 0 69.49121)" gradientUnits="userSpaceOnUse"/>
    <radialGradient xlink:href="#linearGradient13118" id="radialGradient13566" cx="-103.26369" cy="206.96295" r="155.46289" fx="-103.26369" fy="206.96295" gradientTransform="matrix(1 0 0 .66423 0 69.49121)" gradientUnits="userSpaceOnUse"/>
    <radialGradient xlink:href="#linearGradient13118" id="radialGradient13586" cx="-103.26369" cy="206.96295" r="155.46289" fx="-103.26369" fy="206.96295" gradientTransform="matrix(1 0 0 .66423 0 69.49121)" gradientUnits="userSpaceOnUse"/>
    <radialGradient xlink:href="#linearGradient13118" id="radialGradient13596" cx="-103.26369" cy="206.96295" r="155.46289" fx="-103.26369" fy="206.96295" gradientTransform="matrix(1 0 0 .66423 0 69.49121)" gradientUnits="userSpaceOnUse"/>
    <radialGradient xlink:href="#linearGradient13118" id="radialGradient13606" cx="-103.26369" cy="206.96295" r="155.46289" fx="-103.26369" fy="206.96295" gradientTransform="matrix(1 0 0 .66423 0 69.49121)" gradientUnits="userSpaceOnUse"/>
    <linearGradient id="linearGradient13637">
      <stop id="stop13639" offset="0" style="stop-color:#8b4513;stop-opacity:1"/>
      <stop id="stop13641" offset="1" style="stop-color:#8b4513;stop-opacity:0"/>
    </linearGradient>
    <linearGradient id="linearGradient13118">
      <stop id="stop13120" offset="0" style="stop-color:#008e03;stop-opacity:1"/>
      <stop id="stop13122" offset="1" style="stop-color:#6b8e23;stop-opacity:0"/>
    </linearGradient>
    <linearGradient xlink:href="#linearGradient13637" id="linearGradient13643" x1="344.97592" x2="385.76999" y1="889.18591" y2="607.17474" gradientUnits="userSpaceOnUse"/>
  </defs>
  <g id="layer1">
    <g id="g13685">
      <path id="path13608" d="M371.58008 414.73242c13.37726 46.36646 14.41858 90.92961 9.21875 133.88672-5.20965 43.03822-16.81204 85.5088-29.83594 128.22266-1.84223 6.04188-3.74023 12.15879-5.6582 18.31445-25.15995-17.22077-42.13276-32.83232-53.68946-47.65234-13.56053-17.3897-20.57523-34.79653-23.99609-54.45899-3.49229-20.07308-3.11748-41.56681-2.63281-66.74219.48106-24.98787.98984-52.19126-2.48633-83.1914-.2016 31.00764-4.36428 57.82662-8.47266 82.16601-4.06192 24.0642-8.35942 47.07581-8.35742 69.53907.002 22.95494 4.45094 46.17598 18.25977 70.67773 13.4174 23.8072 35.10262 47.75234 67.83593 73.17188-6.99681 22.81704-13.78046 45.98989-19.4414 69.06445-10.99841 44.83062-25.00009 92.94774-22.31131 143.56055 16.55576-1.71495 40.19801.93659 56.7372-.91352 16.41337-2.7512 38.15679 1.65986 54.59049-.95616-9.22494-36.93715-17.22825-87.62178-14.94802-130.38618.41363-7.75752.95379-15.51134 1.58789-23.28125 21.88594-9.08787 40.85211-21.76283 57.00781-36.94922 23.08047-21.69568 40.40825-48.45906 52.76563-77.31641 25.27327-59.01894 30.64583-128.78611 20.15429-188.71484 3.72276 61.04654-9.06853 127.47103-38.60156 179.625-14.39219 25.41595-32.4895 46.98009-54.06641 63.02344-10.26825 7.63487-21.32121 13.99979-33.16211 18.97851 2.47348-21.99903 5.3076-44.36363 7.89649-67.48828 5.1049-45.59827 8.90521-91.73823 5.84375-137.68164-3.07006-46.07244-12.9682-90.85226-34.23828-134.49805z" style="opacity:1;fill:#000;fill-opacity:1;stroke:none;stroke-width:1;stroke-miterlimit:4;stroke-dasharray:none;stroke-opacity:1"/>
      <path id="path13635" d="M371.58008 414.73242c13.37726 46.36646 14.41858 90.92961 9.21875 133.88672-5.20965 43.03822-16.81204 85.5088-29.83594 128.22266-1.84223 6.04188-3.74023 12.15879-5.6582 18.31445-25.15995-17.22077-42.13276-32.83232-53.68946-47.65234-13.56053-17.3897-20.57523-34.79653-23.99609-54.45899-3.49229-20.07308-3.11748-41.56681-2.63281-66.74219.48106-24.98787.98984-52.19126-2.48633-83.1914-.2016 31.00764-4.36428 57.82662-8.47266 82.16601-4.06192 24.0642-8.35942 47.07581-8.35742 69.53907.002 22.95494 4.45094 46.17598 18.25977 70.67773 13.4174 23.8072 35.10262 47.75234 67.83593 73.17188-6.99681 22.81704-13.78046 45.98989-19.4414 69.06445-10.99841 44.83062-25.00009 92.94774-22.31131 143.56055 16.55576-1.71495 40.19801.93659 56.7372-.91352 16.41337-2.7512 38.15679 1.65986 54.59049-.95616-9.22494-36.93715-17.22825-87.62178-14.94802-130.38618.41363-7.75752.95379-15.51134 1.58789-23.28125 21.88594-9.08787 40.85211-21.76283 57.00781-36.94922 23.08047-21.69568 40.40825-48.45906 52.76563-77.31641 25.27327-59.01894 30.64583-128.78611 20.15429-188.71484 3.72276 61.04654-9.06853 127.47103-38.60156 179.625-14.39219 25.41595-32.4895 46.98009-54.06641 63.02344-10.26825 7.63487-21.32121 13.99979-33.16211 18.97851 2.47348-21.99903 5.3076-44.36363 7.89649-67.48828 5.1049-45.59827 8.90521-91.73823 5.84375-137.68164-3.07006-46.07244-12.9682-90.85226-34.23828-134.49805z" style="opacity:1;fill:url(#linearGradient13643);fill-opacity:1;stroke:none;stroke-width:1;stroke-miterlimit:4;stroke-dasharray:none;stroke-opacity:1"/>
      <path id="path13651" d="M344.89453 695.1543a18.23077 22.84402 15.31427 0 1 8.29688 26.27343 18.23077 22.84402 15.31427 0 1-22.30664 16.77735 18.65568 22.88848 17.12754 0 0 2.72265 1.16797 18.65568 22.88848 17.12754 0 0 24.57031-16.37891 18.65568 22.88848 17.12754 0 0-11.08789-27.36719 18.65568 22.88848 17.12754 0 0-2.19531-.47265z" style="opacity:.2;fill:#000;fill-opacity:1;stroke:none;stroke-width:1;stroke-miterlimit:4;stroke-dasharray:none;stroke-opacity:1"/>
      <path id="path13656" d="M392.48936 755.07487a18.75361 20.66869 10.97506 0 0-18.01624 18.93349 18.75361 20.66869 10.97506 0 0 14.83801 21.87426 19.20288 20.6958 7.1114 0 1-3.04709.007 19.20288 20.6958 7.1114 0 1-17.15131-22.34486 19.20288 20.6958 7.1114 0 1 21.10002-18.85489 19.20288 20.6958 7.1114 0 1 2.27661.38458z" style="opacity:.2;fill:#000;fill-opacity:1;stroke:none;stroke-width:1;stroke-miterlimit:4;stroke-dasharray:none;stroke-opacity:1"/>
      <path id="path13679" d="M370.44223 414.68612c7.48082 25.92903 11.10049 51.29522 11.93164 76.13086 4.16028 19.22844 6.72518 38.67904 8.03711 58.36719 3.06146 45.94341-.73885 92.08337-5.84375 137.68164-2.58889 23.12465-5.42301 45.48925-7.89649 67.48828 5.1942-2.18399 10.22792-4.64975 15.11914-7.35742 2.26349-19.63383 4.74533-39.57281 7.04688-60.13086 5.1049-45.59827 8.90521-91.73823 5.84375-137.68164-3.07006-46.07244-12.9682-90.85226-34.23828-134.49805zm-109.08008 68.37891c-.2016 31.00764-4.36428 57.82663-8.47266 82.16602-1.2238 7.25022-2.45511 14.39583-3.59765 21.46875-.089 16.71441.41242 31.88615 2.91992 46.29882 3.42086 19.66246 10.43556 37.06929 23.99609 54.45899 11.5567 14.82002 28.52951 30.43157 53.68946 47.65234.87257-2.80048 1.71328-5.55101 2.57422-8.33203-18.85787-13.97738-32.33052-26.92793-41.99415-39.32031-13.56052-17.3897-20.57523-34.79653-23.99609-54.45899-3.49229-20.07308-3.11748-41.5668-2.63281-66.74218.48106-24.98787.98984-52.19127-2.48633-83.19141zm255.4082 9.66211c2.5392 41.63822-2.61124 85.77626-15.50976 126.18359-4.15139 21.53881-10.39849 42.64542-18.91406 62.53125-12.35738 28.85735-29.68516 55.62073-52.76563 77.31641-16.1557 15.18639-35.12187 27.86135-57.00781 36.94922-.6341 7.76991-1.17426 15.52373-1.58789 23.28125-2.28023 42.7644 5.72232 93.44957 14.94726 130.38668-2.14846.342-4.39107.5599-6.69726.6934 7.37386.2739 14.57367.3243 20.96679-.6934-9.22494-36.93711-17.22749-87.62228-14.94726-130.38668.41363-7.75752.95379-15.51134 1.58789-23.28125 21.88594-9.08787 40.85211-21.76283 57.00781-36.94922 23.08047-21.69568 40.40825-48.45906 52.76563-77.31641 25.27327-59.01894 30.64583-128.78611 20.15429-188.71484zM344.4852 949.38924c-4.60335.014-9.03924.2556-13.14258.9434-2.89283.3236-6.01217.502-9.26367.5976 8.39239.1537 16.59364.1786 23.5332-.5976 2.31562-.3882 4.74622-.6228 7.24414-.7657-2.82408-.1049-5.63024-.1862-8.37109-.1777zm-55.63477 1.2559c.0101.2001.0148.3994.0254.5996 2.66293-.2759 5.52163-.4308 8.49219-.5176-2.88196-.053-5.73312-.087-8.51759-.082z" style="opacity:.2;fill:#000;fill-opacity:1;stroke:none;stroke-width:1;stroke-miterlimit:4;stroke-dasharray:none;stroke-opacity:1"/>
      <g id="g13538" transform="translate(638.06724 408.47417) scale(.75476)">
        <g id="g13540">
          <path id="path13542" d="M-70.35548 103.69928a34.04291 34.04291 0 0 0-32.84961 25.26757 24.39742 24.39742 0 0 0-10.83789-2.57226 24.39742 24.39742 0 0 0-16.67774 6.61523 28.3691 28.3691 0 0 0-24.74218-14.55859 28.3691 28.3691 0 0 0-28.24024 25.79297 30.63862 30.63862 0 0 0-6.9375-.82813 30.63862 30.63862 0 0 0-30.63867 30.63867 30.63862 30.63862 0 0 0 1.94141 10.67774 34.04291 34.04291 0 0 0-5.34571-.46484 34.04291 34.04291 0 0 0-34.04297 34.04296 34.04291 34.04291 0 0 0 34.04297 34.04297 34.04291 34.04291 0 0 0 4.125-.29297 34.6103 34.6103 0 0 0-1.85547 11.07422 34.6103 34.6103 0 0 0 34.61133 34.60938 34.6103 34.6103 0 0 0 27.93164-14.23438 29.50386 29.50386 0 0 0 28.23828 21.04297 29.50386 29.50386 0 0 0 27.47266-18.82812 27.23433 27.23433 0 0 0 12.24414 2.9414 27.23433 27.23433 0 0 0 13.99414-3.90234 30.07124 30.07124 0 0 0 29.69531 25.46289 30.07124 30.07124 0 0 0 28.15821-19.62305 27.23433 27.23433 0 0 0 15.5293 4.8711 27.23433 27.23433 0 0 0 27.23437-27.23438 27.23433 27.23433 0 0 0-1.29883-8.20898 27.23433 27.23433 0 0 0 3.56836.26562 27.23433 27.23433 0 0 0 27.23437-27.23437 27.23433 27.23433 0 0 0-16.98828-25.21485 35.17767 35.17767 0 0 0 5.64063-19.04101 35.17767 35.17767 0 0 0-35.17774-35.17774 35.17767 35.17767 0 0 0-11.02539 1.82032 23.83004 23.83004 0 0 0-23.01757-17.70704 23.83004 23.83004 0 0 0-8.01368 1.41407 34.04291 34.04291 0 0 0 .0703-1.41407 34.04291 34.04291 0 0 0-34.04297-34.04296z" style="opacity:1;fill:#9acd32;fill-opacity:1;stroke:none;stroke-width:1;stroke-miterlimit:4;stroke-dasharray:none;stroke-opacity:1"/>
          <path id="path13544" d="M-70.35548 103.69928a34.04291 34.04291 0 0 0-32.84961 25.26757 24.39742 24.39742 0 0 0-10.83789-2.57226 24.39742 24.39742 0 0 0-16.67774 6.61523 28.3691 28.3691 0 0 0-24.74218-14.55859 28.3691 28.3691 0 0 0-28.24024 25.79297 30.63862 30.63862 0 0 0-6.9375-.82813 30.63862 30.63862 0 0 0-30.63867 30.63867 30.63862 30.63862 0 0 0 1.94141 10.67774 34.04291 34.04291 0 0 0-5.34571-.46484 34.04291 34.04291 0 0 0-34.04297 34.04296 34.04291 34.04291 0 0 0 34.04297 34.04297 34.04291 34.04291 0 0 0 4.125-.29297 34.6103 34.6103 0 0 0-1.85547 11.07422 34.6103 34.6103 0 0 0 34.61133 34.60938 34.6103 34.6103 0 0 0 27.93164-14.23438 29.50386 29.50386 0 0 0 28.23828 21.04297 29.50386 29.50386 0 0 0 27.47266-18.82812 27.23433 27.23433 0 0 0 12.24414 2.9414 27.23433 27.23433 0 0 0 13.99414-3.90234 30.07124 30.07124 0 0 0 29.69531 25.46289 30.07124 30.07124 0 0 0 28.15821-19.62305 27.23433 27.23433 0 0 0 15.5293 4.8711 27.23433 27.23433 0 0 0 27.23437-27.23438 27.23433 27.23433 0 0 0-1.29883-8.20898 27.23433 27.23433 0 0 0 3.56836.26562 27.23433 27.23433 0 0 0 27.23437-27.23437 27.23433 27.23433 0 0 0-16.98828-25.21485 35.17767 35.17767 0 0 0 5.64063-19.04101 35.17767 35.17767 0 0 0-35.17774-35.17774 35.17767 35.17767 0 0 0-11.02539 1.82032 23.83004 23.83004 0 0 0-23.01757-17.70704 23.83004 23.83004 0 0 0-8.01368 1.41407 34.04291 34.04291 0 0 0 .0703-1.41407 34.04291 34.04291 0 0 0-34.04297-34.04296z" style="opacity:1;fill:url(#radialGradient13546);fill-opacity:1;stroke:none;stroke-width:1;stroke-miterlimit:4;stroke-dasharray:none;stroke-opacity:1"/>
        </g>
      </g>
      <g id="g13498" transform="translate(237.26758 397.81812) scale(.49463)">
        <g id="g13500">
          <path id="path13502" d="M-70.35548 103.69928a34.04291 34.04291 0 0 0-32.84961 25.26757 24.39742 24.39742 0 0 0-10.83789-2.57226 24.39742 24.39742 0 0 0-16.67774 6.61523 28.3691 28.3691 0 0 0-24.74218-14.55859 28.3691 28.3691 0 0 0-28.24024 25.79297 30.63862 30.63862 0 0 0-6.9375-.82813 30.63862 30.63862 0 0 0-30.63867 30.63867 30.63862 30.63862 0 0 0 1.94141 10.67774 34.04291 34.04291 0 0 0-5.34571-.46484 34.04291 34.04291 0 0 0-34.04297 34.04296 34.04291 34.04291 0 0 0 34.04297 34.04297 34.04291 34.04291 0 0 0 4.125-.29297 34.6103 34.6103 0 0 0-1.85547 11.07422 34.6103 34.6103 0 0 0 34.61133 34.60938 34.6103 34.6103 0 0 0 27.93164-14.23438 29.50386 29.50386 0 0 0 28.23828 21.04297 29.50386 29.50386 0 0 0 27.47266-18.82812 27.23433 27.23433 0 0 0 12.24414 2.9414 27.23433 27.23433 0 0 0 13.99414-3.90234 30.07124 30.07124 0 0 0 29.69531 25.46289 30.07124 30.07124 0 0 0 28.15821-19.62305 27.23433 27.23433 0 0 0 15.5293 4.8711 27.23433 27.23433 0 0 0 27.23437-27.23438 27.23433 27.23433 0 0 0-1.29883-8.20898 27.23433 27.23433 0 0 0 3.56836.26562 27.23433 27.23433 0 0 0 27.23437-27.23437 27.23433 27.23433 0 0 0-16.98828-25.21485 35.17767 35.17767 0 0 0 5.64063-19.04101 35.17767 35.17767 0 0 0-35.17774-35.17774 35.17767 35.17767 0 0 0-11.02539 1.82032 23.83004 23.83004 0 0 0-23.01757-17.70704 23.83004 23.83004 0 0 0-8.01368 1.41407 34.04291 34.04291 0 0 0 .0703-1.41407 34.04291 34.04291 0 0 0-34.04297-34.04296z" style="opacity:1;fill:#9acd32;fill-opacity:1;stroke:none;stroke-width:1;stroke-miterlimit:4;stroke-dasharray:none;stroke-opacity:1"/>
          <path id="path13504" d="M-70.35548 103.69928a34.04291 34.04291 0 0 0-32.84961 25.26757 24.39742 24.39742 0 0 0-10.83789-2.57226 24.39742 24.39742 0 0 0-16.67774 6.61523 28.3691 28.3691 0 0 0-24.74218-14.55859 28.3691 28.3691 0 0 0-28.24024 25.79297 30.63862 30.63862 0 0 0-6.9375-.82813 30.63862 30.63862 0 0 0-30.63867 30.63867 30.63862 30.63862 0 0 0 1.94141 10.67774 34.04291 34.04291 0 0 0-5.34571-.46484 34.04291 34.04291 0 0 0-34.04297 34.04296 34.04291 34.04291 0 0 0 34.04297 34.04297 34.04291 34.04291 0 0 0 4.125-.29297 34.6103 34.6103 0 0 0-1.85547 11.07422 34.6103 34.6103 0 0 0 34.61133 34.60938 34.6103 34.6103 0 0 0 27.93164-14.23438 29.50386 29.50386 0 0 0 28.23828 21.04297 29.50386 29.50386 0 0 0 27.47266-18.82812 27.23433 27.23433 0 0 0 12.24414 2.9414 27.23433 27.23433 0 0 0 13.99414-3.90234 30.07124 30.07124 0 0 0 29.69531 25.46289 30.07124 30.07124 0 0 0 28.15821-19.62305 27.23433 27.23433 0 0 0 15.5293 4.8711 27.23433 27.23433 0 0 0 27.23437-27.23438 27.23433 27.23433 0 0 0-1.29883-8.20898 27.23433 27.23433 0 0 0 3.56836.26562 27.23433 27.23433 0 0 0 27.23437-27.23437 27.23433 27.23433 0 0 0-16.98828-25.21485 35.17767 35.17767 0 0 0 5.64063-19.04101 35.17767 35.17767 0 0 0-35.17774-35.17774 35.17767 35.17767 0 0 0-11.02539 1.82032 23.83004 23.83004 0 0 0-23.01757-17.70704 23.83004 23.83004 0 0 0-8.01368 1.41407 34.04291 34.04291 0 0 0 .0703-1.41407 34.04291 34.04291 0 0 0-34.04297-34.04296z" style="opacity:1;fill:url(#radialGradient13506);fill-opacity:1;stroke:none;stroke-width:1;stroke-miterlimit:4;stroke-dasharray:none;stroke-opacity:1"/>
        </g>
      </g>
      <g id="g13488" transform="translate(371.13861 313.73898) scale(.36836)">
        <g id="g13490">
          <path id="path13492" d="M-70.35548 103.69928a34.04291 34.04291 0 0 0-32.84961 25.26757 24.39742 24.39742 0 0 0-10.83789-2.57226 24.39742 24.39742 0 0 0-16.67774 6.61523 28.3691 28.3691 0 0 0-24.74218-14.55859 28.3691 28.3691 0 0 0-28.24024 25.79297 30.63862 30.63862 0 0 0-6.9375-.82813 30.63862 30.63862 0 0 0-30.63867 30.63867 30.63862 30.63862 0 0 0 1.94141 10.67774 34.04291 34.04291 0 0 0-5.34571-.46484 34.04291 34.04291 0 0 0-34.04297 34.04296 34.04291 34.04291 0 0 0 34.04297 34.04297 34.04291 34.04291 0 0 0 4.125-.29297 34.6103 34.6103 0 0 0-1.85547 11.07422 34.6103 34.6103 0 0 0 34.61133 34.60938 34.6103 34.6103 0 0 0 27.93164-14.23438 29.50386 29.50386 0 0 0 28.23828 21.04297 29.50386 29.50386 0 0 0 27.47266-18.82812 27.23433 27.23433 0 0 0 12.24414 2.9414 27.23433 27.23433 0 0 0 13.99414-3.90234 30.07124 30.07124 0 0 0 29.69531 25.46289 30.07124 30.07124 0 0 0 28.15821-19.62305 27.23433 27.23433 0 0 0 15.5293 4.8711 27.23433 27.23433 0 0 0 27.23437-27.23438 27.23433 27.23433 0 0 0-1.29883-8.20898 27.23433 27.23433 0 0 0 3.56836.26562 27.23433 27.23433 0 0 0 27.23437-27.23437 27.23433 27.23433 0 0 0-16.98828-25.21485 35.17767 35.17767 0 0 0 5.64063-19.04101 35.17767 35.17767 0 0 0-35.17774-35.17774 35.17767 35.17767 0 0 0-11.02539 1.82032 23.83004 23.83004 0 0 0-23.01757-17.70704 23.83004 23.83004 0 0 0-8.01368 1.41407 34.04291 34.04291 0 0 0 .0703-1.41407 34.04291 34.04291 0 0 0-34.04297-34.04296z" style="opacity:1;fill:#9acd32;fill-opacity:1;stroke:none;stroke-width:1;stroke-miterlimit:4;stroke-dasharray:none;stroke-opacity:1"/>
          <path id="path13494" d="M-70.35548 103.69928a34.04291 34.04291 0 0 0-32.84961 25.26757 24.39742 24.39742 0 0 0-10.83789-2.57226 24.39742 24.39742 0 0 0-16.67774 6.61523 28.3691 28.3691 0 0 0-24.74218-14.55859 28.3691 28.3691 0 0 0-28.24024 25.79297 30.63862 30.63862 0 0 0-6.9375-.82813 30.63862 30.63862 0 0 0-30.63867 30.63867 30.63862 30.63862 0 0 0 1.94141 10.67774 34.04291 34.04291 0 0 0-5.34571-.46484 34.04291 34.04291 0 0 0-34.04297 34.04296 34.04291 34.04291 0 0 0 34.04297 34.04297 34.04291 34.04291 0 0 0 4.125-.29297 34.6103 34.6103 0 0 0-1.85547 11.07422 34.6103 34.6103 0 0 0 34.61133 34.60938 34.6103 34.6103 0 0 0 27.93164-14.23438 29.50386 29.50386 0 0 0 28.23828 21.04297 29.50386 29.50386 0 0 0 27.47266-18.82812 27.23433 27.23433 0 0 0 12.24414 2.9414 27.23433 27.23433 0 0 0 13.99414-3.90234 30.07124 30.07124 0 0 0 29.69531 25.46289 30.07124 30.07124 0 0 0 28.15821-19.62305 27.23433 27.23433 0 0 0 15.5293 4.8711 27.23433 27.23433 0 0 0 27.23437-27.23438 27.23433 27.23433 0 0 0-1.29883-8.20898 27.23433 27.23433 0 0 0 3.56836.26562 27.23433 27.23433 0 0 0 27.23437-27.23437 27.23433 27.23433 0 0 0-16.98828-25.21485 35.17767 35.17767 0 0 0 5.64063-19.04101 35.17767 35.17767 0 0 0-35.17774-35.17774 35.17767 35.17767 0 0 0-11.02539 1.82032 23.83004 23.83004 0 0 0-23.01757-17.70704 23.83004 23.83004 0 0 0-8.01368 1.41407 34.04291 34.04291 0 0 0 .0703-1.41407 34.04291 34.04291 0 0 0-34.04297-34.04296z" style="opacity:1;fill:url(#radialGradient13496);fill-opacity:1;stroke:none;stroke-width:1;stroke-miterlimit:4;stroke-dasharray:none;stroke-opacity:1"/>
        </g>
      </g>
      <g id="g13478" transform="translate(573.96749 278.22912) scale(.75594)">
        <g id="g13480">
          <path id="path13482" d="M-70.35548 103.69928a34.04291 34.04291 0 0 0-32.84961 25.26757 24.39742 24.39742 0 0 0-10.83789-2.57226 24.39742 24.39742 0 0 0-16.67774 6.61523 28.3691 28.3691 0 0 0-24.74218-14.55859 28.3691 28.3691 0 0 0-28.24024 25.79297 30.63862 30.63862 0 0 0-6.9375-.82813 30.63862 30.63862 0 0 0-30.63867 30.63867 30.63862 30.63862 0 0 0 1.94141 10.67774 34.04291 34.04291 0 0 0-5.34571-.46484 34.04291 34.04291 0 0 0-34.04297 34.04296 34.04291 34.04291 0 0 0 34.04297 34.04297 34.04291 34.04291 0 0 0 4.125-.29297 34.6103 34.6103 0 0 0-1.85547 11.07422 34.6103 34.6103 0 0 0 34.61133 34.60938 34.6103 34.6103 0 0 0 27.93164-14.23438 29.50386 29.50386 0 0 0 28.23828 21.04297 29.50386 29.50386 0 0 0 27.47266-18.82812 27.23433 27.23433 0 0 0 12.24414 2.9414 27.23433 27.23433 0 0 0 13.99414-3.90234 30.07124 30.07124 0 0 0 29.69531 25.46289 30.07124 30.07124 0 0 0 28.15821-19.62305 27.23433 27.23433 0 0 0 15.5293 4.8711 27.23433 27.23433 0 0 0 27.23437-27.23438 27.23433 27.23433 0 0 0-1.29883-8.20898 27.23433 27.23433 0 0 0 3.56836.26562 27.23433 27.23433 0 0 0 27.23437-27.23437 27.23433 27.23433 0 0 0-16.98828-25.21485 35.17767 35.17767 0 0 0 5.64063-19.04101 35.17767 35.17767 0 0 0-35.17774-35.17774 35.17767 35.17767 0 0 0-11.02539 1.82032 23.83004 23.83004 0 0 0-23.01757-17.70704 23.83004 23.83004 0 0 0-8.01368 1.41407 34.04291 34.04291 0 0 0 .0703-1.41407 34.04291 34.04291 0 0 0-34.04297-34.04296z" style="opacity:1;fill:#9acd32;fill-opacity:1;stroke:none;stroke-width:1;stroke-miterlimit:4;stroke-dasharray:none;stroke-opacity:1"/>
          <path id="path13484" d="M-70.35548 103.69928a34.04291 34.04291 0 0 0-32.84961 25.26757 24.39742 24.39742 0 0 0-10.83789-2.57226 24.39742 24.39742 0 0 0-16.67774 6.61523 28.3691 28.3691 0 0 0-24.74218-14.55859 28.3691 28.3691 0 0 0-28.24024 25.79297 30.63862 30.63862 0 0 0-6.9375-.82813 30.63862 30.63862 0 0 0-30.63867 30.63867 30.63862 30.63862 0 0 0 1.94141 10.67774 34.04291 34.04291 0 0 0-5.34571-.46484 34.04291 34.04291 0 0 0-34.04297 34.04296 34.04291 34.04291 0 0 0 34.04297 34.04297 34.04291 34.04291 0 0 0 4.125-.29297 34.6103 34.6103 0 0 0-1.85547 11.07422 34.6103 34.6103 0 0 0 34.61133 34.60938 34.6103 34.6103 0 0 0 27.93164-14.23438 29.50386 29.50386 0 0 0 28.23828 21.04297 29.50386 29.50386 0 0 0 27.47266-18.82812 27.23433 27.23433 0 0 0 12.24414 2.9414 27.23433 27.23433 0 0 0 13.99414-3.90234 30.07124 30.07124 0 0 0 29.69531 25.46289 30.07124 30.07124 0 0 0 28.15821-19.62305 27.23433 27.23433 0 0 0 15.5293 4.8711 27.23433 27.23433 0 0 0 27.23437-27.23438 27.23433 27.23433 0 0 0-1.29883-8.20898 27.23433 27.23433 0 0 0 3.56836.26562 27.23433 27.23433 0 0 0 27.23437-27.23437 27.23433 27.23433 0 0 0-16.98828-25.21485 35.17767 35.17767 0 0 0 5.64063-19.04101 35.17767 35.17767 0 0 0-35.17774-35.17774 35.17767 35.17767 0 0 0-11.02539 1.82032 23.83004 23.83004 0 0 0-23.01757-17.70704 23.83004 23.83004 0 0 0-8.01368 1.41407 34.04291 34.04291 0 0 0 .0703-1.41407 34.04291 34.04291 0 0 0-34.04297-34.04296z" style="opacity:1;fill:url(#radialGradient13486);fill-opacity:1;stroke:none;stroke-width:1;stroke-miterlimit:4;stroke-dasharray:none;stroke-opacity:1"/>
        </g>
      </g>
      <g id="g13548" transform="translate(454.56752 490.66043) scale(.45894)">
        <g id="g13550">
          <path id="path13552" d="M-70.35548 103.69928a34.04291 34.04291 0 0 0-32.84961 25.26757 24.39742 24.39742 0 0 0-10.83789-2.57226 24.39742 24.39742 0 0 0-16.67774 6.61523 28.3691 28.3691 0 0 0-24.74218-14.55859 28.3691 28.3691 0 0 0-28.24024 25.79297 30.63862 30.63862 0 0 0-6.9375-.82813 30.63862 30.63862 0 0 0-30.63867 30.63867 30.63862 30.63862 0 0 0 1.94141 10.67774 34.04291 34.04291 0 0 0-5.34571-.46484 34.04291 34.04291 0 0 0-34.04297 34.04296 34.04291 34.04291 0 0 0 34.04297 34.04297 34.04291 34.04291 0 0 0 4.125-.29297 34.6103 34.6103 0 0 0-1.85547 11.07422 34.6103 34.6103 0 0 0 34.61133 34.60938 34.6103 34.6103 0 0 0 27.93164-14.23438 29.50386 29.50386 0 0 0 28.23828 21.04297 29.50386 29.50386 0 0 0 27.47266-18.82812 27.23433 27.23433 0 0 0 12.24414 2.9414 27.23433 27.23433 0 0 0 13.99414-3.90234 30.07124 30.07124 0 0 0 29.69531 25.46289 30.07124 30.07124 0 0 0 28.15821-19.62305 27.23433 27.23433 0 0 0 15.5293 4.8711 27.23433 27.23433 0 0 0 27.23437-27.23438 27.23433 27.23433 0 0 0-1.29883-8.20898 27.23433 27.23433 0 0 0 3.56836.26562 27.23433 27.23433 0 0 0 27.23437-27.23437 27.23433 27.23433 0 0 0-16.98828-25.21485 35.17767 35.17767 0 0 0 5.64063-19.04101 35.17767 35.17767 0 0 0-35.17774-35.17774 35.17767 35.17767 0 0 0-11.02539 1.82032 23.83004 23.83004 0 0 0-23.01757-17.70704 23.83004 23.83004 0 0 0-8.01368 1.41407 34.04291 34.04291 0 0 0 .0703-1.41407 34.04291 34.04291 0 0 0-34.04297-34.04296z" style="opacity:1;fill:#9acd32;fill-opacity:1;stroke:none;stroke-width:1;stroke-miterlimit:4;stroke-dasharray:none;stroke-opacity:1"/>
          <path id="path13554" d="M-70.35548 103.69928a34.04291 34.04291 0 0 0-32.84961 25.26757 24.39742 24.39742 0 0 0-10.83789-2.57226 24.39742 24.39742 0 0 0-16.67774 6.61523 28.3691 28.3691 0 0 0-24.74218-14.55859 28.3691 28.3691 0 0 0-28.24024 25.79297 30.63862 30.63862 0 0 0-6.9375-.82813 30.63862 30.63862 0 0 0-30.63867 30.63867 30.63862 30.63862 0 0 0 1.94141 10.67774 34.04291 34.04291 0 0 0-5.34571-.46484 34.04291 34.04291 0 0 0-34.04297 34.04296 34.04291 34.04291 0 0 0 34.04297 34.04297 34.04291 34.04291 0 0 0 4.125-.29297 34.6103 34.6103 0 0 0-1.85547 11.07422 34.6103 34.6103 0 0 0 34.61133 34.60938 34.6103 34.6103 0 0 0 27.93164-14.23438 29.50386 29.50386 0 0 0 28.23828 21.04297 29.50386 29.50386 0 0 0 27.47266-18.82812 27.23433 27.23433 0 0 0 12.24414 2.9414 27.23433 27.23433 0 0 0 13.99414-3.90234 30.07124 30.07124 0 0 0 29.69531 25.46289 30.07124 30.07124 0 0 0 28.15821-19.62305 27.23433 27.23433 0 0 0 15.5293 4.8711 27.23433 27.23433 0 0 0 27.23437-27.23438 27.23433 27.23433 0 0 0-1.29883-8.20898 27.23433 27.23433 0 0 0 3.56836.26562 27.23433 27.23433 0 0 0 27.23437-27.23437 27.23433 27.23433 0 0 0-16.98828-25.21485 35.17767 35.17767 0 0 0 5.64063-19.04101 35.17767 35.17767 0 0 0-35.17774-35.17774 35.17767 35.17767 0 0 0-11.02539 1.82032 23.83004 23.83004 0 0 0-23.01757-17.70704 23.83004 23.83004 0 0 0-8.01368 1.41407 34.04291 34.04291 0 0 0 .0703-1.41407 34.04291 34.04291 0 0 0-34.04297-34.04296z" style="opacity:1;fill:url(#radialGradient13556);fill-opacity:1;stroke:none;stroke-width:1;stroke-miterlimit:4;stroke-dasharray:none;stroke-opacity:1"/>
        </g>
      </g>
      <g id="g13262" transform="translate(660.2444 312.6913) scale(.73765)">
        <g id="g13264">
          <path id="path13266" d="M-70.35548 103.69928a34.04291 34.04291 0 0 0-32.84961 25.26757 24.39742 24.39742 0 0 0-10.83789-2.57226 24.39742 24.39742 0 0 0-16.67774 6.61523 28.3691 28.3691 0 0 0-24.74218-14.55859 28.3691 28.3691 0 0 0-28.24024 25.79297 30.63862 30.63862 0 0 0-6.9375-.82813 30.63862 30.63862 0 0 0-30.63867 30.63867 30.63862 30.63862 0 0 0 1.94141 10.67774 34.04291 34.04291 0 0 0-5.34571-.46484 34.04291 34.04291 0 0 0-34.04297 34.04296 34.04291 34.04291 0 0 0 34.04297 34.04297 34.04291 34.04291 0 0 0 4.125-.29297 34.6103 34.6103 0 0 0-1.85547 11.07422 34.6103 34.6103 0 0 0 34.61133 34.60938 34.6103 34.6103 0 0 0 27.93164-14.23438 29.50386 29.50386 0 0 0 28.23828 21.04297 29.50386 29.50386 0 0 0 27.47266-18.82812 27.23433 27.23433 0 0 0 12.24414 2.9414 27.23433 27.23433 0 0 0 13.99414-3.90234 30.07124 30.07124 0 0 0 29.69531 25.46289 30.07124 30.07124 0 0 0 28.15821-19.62305 27.23433 27.23433 0 0 0 15.5293 4.8711 27.23433 27.23433 0 0 0 27.23437-27.23438 27.23433 27.23433 0 0 0-1.29883-8.20898 27.23433 27.23433 0 0 0 3.56836.26562 27.23433 27.23433 0 0 0 27.23437-27.23437 27.23433 27.23433 0 0 0-16.98828-25.21485 35.17767 35.17767 0 0 0 5.64063-19.04101 35.17767 35.17767 0 0 0-35.17774-35.17774 35.17767 35.17767 0 0 0-11.02539 1.82032 23.83004 23.83004 0 0 0-23.01757-17.70704 23.83004 23.83004 0 0 0-8.01368 1.41407 34.04291 34.04291 0 0 0 .0703-1.41407 34.04291 34.04291 0 0 0-34.04297-34.04296z" style="opacity:1;fill:#9acd32;fill-opacity:1;stroke:none;stroke-width:1;stroke-miterlimit:4;stroke-dasharray:none;stroke-opacity:1"/>
          <path id="path13268" d="M-70.35548 103.69928a34.04291 34.04291 0 0 0-32.84961 25.26757 24.39742 24.39742 0 0 0-10.83789-2.57226 24.39742 24.39742 0 0 0-16.67774 6.61523 28.3691 28.3691 0 0 0-24.74218-14.55859 28.3691 28.3691 0 0 0-28.24024 25.79297 30.63862 30.63862 0 0 0-6.9375-.82813 30.63862 30.63862 0 0 0-30.63867 30.63867 30.63862 30.63862 0 0 0 1.94141 10.67774 34.04291 34.04291 0 0 0-5.34571-.46484 34.04291 34.04291 0 0 0-34.04297 34.04296 34.04291 34.04291 0 0 0 34.04297 34.04297 34.04291 34.04291 0 0 0 4.125-.29297 34.6103 34.6103 0 0 0-1.85547 11.07422 34.6103 34.6103 0 0 0 34.61133 34.60938 34.6103 34.6103 0 0 0 27.93164-14.23438 29.50386 29.50386 0 0 0 28.23828 21.04297 29.50386 29.50386 0 0 0 27.47266-18.82812 27.23433 27.23433 0 0 0 12.24414 2.9414 27.23433 27.23433 0 0 0 13.99414-3.90234 30.07124 30.07124 0 0 0 29.69531 25.46289 30.07124 30.07124 0 0 0 28.15821-19.62305 27.23433 27.23433 0 0 0 15.5293 4.8711 27.23433 27.23433 0 0 0 27.23437-27.23438 27.23433 27.23433 0 0 0-1.29883-8.20898 27.23433 27.23433 0 0 0 3.56836.26562 27.23433 27.23433 0 0 0 27.23437-27.23437 27.23433 27.23433 0 0 0-16.98828-25.21485 35.17767 35.17767 0 0 0 5.64063-19.04101 35.17767 35.17767 0 0 0-35.17774-35.17774 35.17767 35.17767 0 0 0-11.02539 1.82032 23.83004 23.83004 0 0 0-23.01757-17.70704 23.83004 23.83004 0 0 0-8.01368 1.41407 34.04291 34.04291 0 0 0 .0703-1.41407 34.04291 34.04291 0 0 0-34.04297-34.04296z" style="opacity:1;fill:url(#radialGradient13270);fill-opacity:1;stroke:none;stroke-width:1;stroke-miterlimit:4;stroke-dasharray:none;stroke-opacity:1"/>
        </g>
      </g>
      <g id="g13108" transform="translate(419.29267 88.94892)">
        <g id="g13126">
          <path id="path13110" d="M-70.35548 103.69928a34.04291 34.04291 0 0 0-32.84961 25.26757 24.39742 24.39742 0 0 0-10.83789-2.57226 24.39742 24.39742 0 0 0-16.67774 6.61523 28.3691 28.3691 0 0 0-24.74218-14.55859 28.3691 28.3691 0 0 0-28.24024 25.79297 30.63862 30.63862 0 0 0-6.9375-.82813 30.63862 30.63862 0 0 0-30.63867 30.63867 30.63862 30.63862 0 0 0 1.94141 10.67774 34.04291 34.04291 0 0 0-5.34571-.46484 34.04291 34.04291 0 0 0-34.04297 34.04296 34.04291 34.04291 0 0 0 34.04297 34.04297 34.04291 34.04291 0 0 0 4.125-.29297 34.6103 34.6103 0 0 0-1.85547 11.07422 34.6103 34.6103 0 0 0 34.61133 34.60938 34.6103 34.6103 0 0 0 27.93164-14.23438 29.50386 29.50386 0 0 0 28.23828 21.04297 29.50386 29.50386 0 0 0 27.47266-18.82812 27.23433 27.23433 0 0 0 12.24414 2.9414 27.23433 27.23433 0 0 0 13.99414-3.90234 30.07124 30.07124 0 0 0 29.69531 25.46289 30.07124 30.07124 0 0 0 28.15821-19.62305 27.23433 27.23433 0 0 0 15.5293 4.8711 27.23433 27.23433 0 0 0 27.23437-27.23438 27.23433 27.23433 0 0 0-1.29883-8.20898 27.23433 27.23433 0 0 0 3.56836.26562 27.23433 27.23433 0 0 0 27.23437-27.23437 27.23433 27.23433 0 0 0-16.98828-25.21485 35.17767 35.17767 0 0 0 5.64063-19.04101 35.17767 35.17767 0 0 0-35.17774-35.17774 35.17767 35.17767 0 0 0-11.02539 1.82032 23.83004 23.83004 0 0 0-23.01757-17.70704 23.83004 23.83004 0 0 0-8.01368 1.41407 34.04291 34.04291 0 0 0 .0703-1.41407 34.04291 34.04291 0 0 0-34.04297-34.04296z" style="opacity:1;fill:#9acd32;fill-opacity:1;stroke:none;stroke-width:1;stroke-miterlimit:4;stroke-dasharray:none;stroke-opacity:1"/>
          <path id="path13116" d="M-70.35548 103.69928a34.04291 34.04291 0 0 0-32.84961 25.26757 24.39742 24.39742 0 0 0-10.83789-2.57226 24.39742 24.39742 0 0 0-16.67774 6.61523 28.3691 28.3691 0 0 0-24.74218-14.55859 28.3691 28.3691 0 0 0-28.24024 25.79297 30.63862 30.63862 0 0 0-6.9375-.82813 30.63862 30.63862 0 0 0-30.63867 30.63867 30.63862 30.63862 0 0 0 1.94141 10.67774 34.04291 34.04291 0 0 0-5.34571-.46484 34.04291 34.04291 0 0 0-34.04297 34.04296 34.04291 34.04291 0 0 0 34.04297 34.04297 34.04291 34.04291 0 0 0 4.125-.29297 34.6103 34.6103 0 0 0-1.85547 11.07422 34.6103 34.6103 0 0 0 34.61133 34.60938 34.6103 34.6103 0 0 0 27.93164-14.23438 29.50386 29.50386 0 0 0 28.23828 21.04297 29.50386 29.50386 0 0 0 27.47266-18.82812 27.23433 27.23433 0 0 0 12.24414 2.9414 27.23433 27.23433 0 0 0 13.99414-3.90234 30.07124 30.07124 0 0 0 29.69531 25.46289 30.07124 30.07124 0 0 0 28.15821-19.62305 27.23433 27.23433 0 0 0 15.5293 4.8711 27.23433 27.23433 0 0 0 27.23437-27.23438 27.23433 27.23433 0 0 0-1.29883-8.20898 27.23433 27.23433 0 0 0 3.56836.26562 27.23433 27.23433 0 0 0 27.23437-27.23437 27.23433 27.23433 0 0 0-16.98828-25.21485 35.17767 35.17767 0 0 0 5.64063-19.04101 35.17767 35.17767 0 0 0-35.17774-35.17774 35.17767 35.17767 0 0 0-11.02539 1.82032 23.83004 23.83004 0 0 0-23.01757-17.70704 23.83004 23.83004 0 0 0-8.01368 1.41407 34.04291 34.04291 0 0 0 .0703-1.41407 34.04291 34.04291 0 0 0-34.04297-34.04296z" style="opacity:1;fill:url(#radialGradient13124);fill-opacity:1;stroke:none;stroke-width:1;stroke-miterlimit:4;stroke-dasharray:none;stroke-opacity:1"/>
        </g>
      </g>
      <g id="g13578" transform="translate(653.14978 361.5753) scale(.4886)">
        <g id="g13580">
          <path id="path13582" d="M-70.35548 103.69928a34.04291 34.04291 0 0 0-32.84961 25.26757 24.39742 24.39742 0 0 0-10.83789-2.57226 24.39742 24.39742 0 0 0-16.67774 6.61523 28.3691 28.3691 0 0 0-24.74218-14.55859 28.3691 28.3691 0 0 0-28.24024 25.79297 30.63862 30.63862 0 0 0-6.9375-.82813 30.63862 30.63862 0 0 0-30.63867 30.63867 30.63862 30.63862 0 0 0 1.94141 10.67774 34.04291 34.04291 0 0 0-5.34571-.46484 34.04291 34.04291 0 0 0-34.04297 34.04296 34.04291 34.04291 0 0 0 34.04297 34.04297 34.04291 34.04291 0 0 0 4.125-.29297 34.6103 34.6103 0 0 0-1.85547 11.07422 34.6103 34.6103 0 0 0 34.61133 34.60938 34.6103 34.6103 0 0 0 27.93164-14.23438 29.50386 29.50386 0 0 0 28.23828 21.04297 29.50386 29.50386 0 0 0 27.47266-18.82812 27.23433 27.23433 0 0 0 12.24414 2.9414 27.23433 27.23433 0 0 0 13.99414-3.90234 30.07124 30.07124 0 0 0 29.69531 25.46289 30.07124 30.07124 0 0 0 28.15821-19.62305 27.23433 27.23433 0 0 0 15.5293 4.8711 27.23433 27.23433 0 0 0 27.23437-27.23438 27.23433 27.23433 0 0 0-1.29883-8.20898 27.23433 27.23433 0 0 0 3.56836.26562 27.23433 27.23433 0 0 0 27.23437-27.23437 27.23433 27.23433 0 0 0-16.98828-25.21485 35.17767 35.17767 0 0 0 5.64063-19.04101 35.17767 35.17767 0 0 0-35.17774-35.17774 35.17767 35.17767 0 0 0-11.02539 1.82032 23.83004 23.83004 0 0 0-23.01757-17.70704 23.83004 23.83004 0 0 0-8.01368 1.41407 34.04291 34.04291 0 0 0 .0703-1.41407 34.04291 34.04291 0 0 0-34.04297-34.04296z" style="opacity:1;fill:#9acd32;fill-opacity:1;stroke:none;stroke-width:1;stroke-miterlimit:4;stroke-dasharray:none;stroke-opacity:1"/>
          <path id="path13584" d="M-70.35548 103.69928a34.04291 34.04291 0 0 0-32.84961 25.26757 24.39742 24.39742 0 0 0-10.83789-2.57226 24.39742 24.39742 0 0 0-16.67774 6.61523 28.3691 28.3691 0 0 0-24.74218-14.55859 28.3691 28.3691 0 0 0-28.24024 25.79297 30.63862 30.63862 0 0 0-6.9375-.82813 30.63862 30.63862 0 0 0-30.63867 30.63867 30.63862 30.63862 0 0 0 1.94141 10.67774 34.04291 34.04291 0 0 0-5.34571-.46484 34.04291 34.04291 0 0 0-34.04297 34.04296 34.04291 34.04291 0 0 0 34.04297 34.04297 34.04291 34.04291 0 0 0 4.125-.29297 34.6103 34.6103 0 0 0-1.85547 11.07422 34.6103 34.6103 0 0 0 34.61133 34.60938 34.6103 34.6103 0 0 0 27.93164-14.23438 29.50386 29.50386 0 0 0 28.23828 21.04297 29.50386 29.50386 0 0 0 27.47266-18.82812 27.23433 27.23433 0 0 0 12.24414 2.9414 27.23433 27.23433 0 0 0 13.99414-3.90234 30.07124 30.07124 0 0 0 29.69531 25.46289 30.07124 30.07124 0 0 0 28.15821-19.62305 27.23433 27.23433 0 0 0 15.5293 4.8711 27.23433 27.23433 0 0 0 27.23437-27.23438 27.23433 27.23433 0 0 0-1.29883-8.20898 27.23433 27.23433 0 0 0 3.56836.26562 27.23433 27.23433 0 0 0 27.23437-27.23437 27.23433 27.23433 0 0 0-16.98828-25.21485 35.17767 35.17767 0 0 0 5.64063-19.04101 35.17767 35.17767 0 0 0-35.17774-35.17774 35.17767 35.17767 0 0 0-11.02539 1.82032 23.83004 23.83004 0 0 0-23.01757-17.70704 23.83004 23.83004 0 0 0-8.01368 1.41407 34.04291 34.04291 0 0 0 .0703-1.41407 34.04291 34.04291 0 0 0-34.04297-34.04296z" style="opacity:1;fill:url(#radialGradient13586);fill-opacity:1;stroke:none;stroke-width:1;stroke-miterlimit:4;stroke-dasharray:none;stroke-opacity:1"/>
        </g>
      </g>
      <g id="g13252" transform="translate(562.78254 184.64466) scale(.75196)">
        <g id="g13254">
          <path id="path13256" d="M-70.35548 103.69928a34.04291 34.04291 0 0 0-32.84961 25.26757 24.39742 24.39742 0 0 0-10.83789-2.57226 24.39742 24.39742 0 0 0-16.67774 6.61523 28.3691 28.3691 0 0 0-24.74218-14.55859 28.3691 28.3691 0 0 0-28.24024 25.79297 30.63862 30.63862 0 0 0-6.9375-.82813 30.63862 30.63862 0 0 0-30.63867 30.63867 30.63862 30.63862 0 0 0 1.94141 10.67774 34.04291 34.04291 0 0 0-5.34571-.46484 34.04291 34.04291 0 0 0-34.04297 34.04296 34.04291 34.04291 0 0 0 34.04297 34.04297 34.04291 34.04291 0 0 0 4.125-.29297 34.6103 34.6103 0 0 0-1.85547 11.07422 34.6103 34.6103 0 0 0 34.61133 34.60938 34.6103 34.6103 0 0 0 27.93164-14.23438 29.50386 29.50386 0 0 0 28.23828 21.04297 29.50386 29.50386 0 0 0 27.47266-18.82812 27.23433 27.23433 0 0 0 12.24414 2.9414 27.23433 27.23433 0 0 0 13.99414-3.90234 30.07124 30.07124 0 0 0 29.69531 25.46289 30.07124 30.07124 0 0 0 28.15821-19.62305 27.23433 27.23433 0 0 0 15.5293 4.8711 27.23433 27.23433 0 0 0 27.23437-27.23438 27.23433 27.23433 0 0 0-1.29883-8.20898 27.23433 27.23433 0 0 0 3.56836.26562 27.23433 27.23433 0 0 0 27.23437-27.23437 27.23433 27.23433 0 0 0-16.98828-25.21485 35.17767 35.17767 0 0 0 5.64063-19.04101 35.17767 35.17767 0 0 0-35.17774-35.17774 35.17767 35.17767 0 0 0-11.02539 1.82032 23.83004 23.83004 0 0 0-23.01757-17.70704 23.83004 23.83004 0 0 0-8.01368 1.41407 34.04291 34.04291 0 0 0 .0703-1.41407 34.04291 34.04291 0 0 0-34.04297-34.04296z" style="opacity:1;fill:#9acd32;fill-opacity:1;stroke:none;stroke-width:1;stroke-miterlimit:4;stroke-dasharray:none;stroke-opacity:1"/>
          <path id="path13258" d="M-70.35548 103.69928a34.04291 34.04291 0 0 0-32.84961 25.26757 24.39742 24.39742 0 0 0-10.83789-2.57226 24.39742 24.39742 0 0 0-16.67774 6.61523 28.3691 28.3691 0 0 0-24.74218-14.55859 28.3691 28.3691 0 0 0-28.24024 25.79297 30.63862 30.63862 0 0 0-6.9375-.82813 30.63862 30.63862 0 0 0-30.63867 30.63867 30.63862 30.63862 0 0 0 1.94141 10.67774 34.04291 34.04291 0 0 0-5.34571-.46484 34.04291 34.04291 0 0 0-34.04297 34.04296 34.04291 34.04291 0 0 0 34.04297 34.04297 34.04291 34.04291 0 0 0 4.125-.29297 34.6103 34.6103 0 0 0-1.85547 11.07422 34.6103 34.6103 0 0 0 34.61133 34.60938 34.6103 34.6103 0 0 0 27.93164-14.23438 29.50386 29.50386 0 0 0 28.23828 21.04297 29.50386 29.50386 0 0 0 27.47266-18.82812 27.23433 27.23433 0 0 0 12.24414 2.9414 27.23433 27.23433 0 0 0 13.99414-3.90234 30.07124 30.07124 0 0 0 29.69531 25.46289 30.07124 30.07124 0 0 0 28.15821-19.62305 27.23433 27.23433 0 0 0 15.5293 4.8711 27.23433 27.23433 0 0 0 27.23437-27.23438 27.23433 27.23433 0 0 0-1.29883-8.20898 27.23433 27.23433 0 0 0 3.56836.26562 27.23433 27.23433 0 0 0 27.23437-27.23437 27.23433 27.23433 0 0 0-16.98828-25.21485 35.17767 35.17767 0 0 0 5.64063-19.04101 35.17767 35.17767 0 0 0-35.17774-35.17774 35.17767 35.17767 0 0 0-11.02539 1.82032 23.83004 23.83004 0 0 0-23.01757-17.70704 23.83004 23.83004 0 0 0-8.01368 1.41407 34.04291 34.04291 0 0 0 .0703-1.41407 34.04291 34.04291 0 0 0-34.04297-34.04296z" style="opacity:1;fill:url(#radialGradient13260);fill-opacity:1;stroke:none;stroke-width:1;stroke-miterlimit:4;stroke-dasharray:none;stroke-opacity:1"/>
        </g>
      </g>
      <g id="g13272" transform="translate(280.72214 203.3934) scale(.97556)">
        <g id="g13274">
          <path id="path13276" d="M-70.35548 103.69928a34.04291 34.04291 0 0 0-32.84961 25.26757 24.39742 24.39742 0 0 0-10.83789-2.57226 24.39742 24.39742 0 0 0-16.67774 6.61523 28.3691 28.3691 0 0 0-24.74218-14.55859 28.3691 28.3691 0 0 0-28.24024 25.79297 30.63862 30.63862 0 0 0-6.9375-.82813 30.63862 30.63862 0 0 0-30.63867 30.63867 30.63862 30.63862 0 0 0 1.94141 10.67774 34.04291 34.04291 0 0 0-5.34571-.46484 34.04291 34.04291 0 0 0-34.04297 34.04296 34.04291 34.04291 0 0 0 34.04297 34.04297 34.04291 34.04291 0 0 0 4.125-.29297 34.6103 34.6103 0 0 0-1.85547 11.07422 34.6103 34.6103 0 0 0 34.61133 34.60938 34.6103 34.6103 0 0 0 27.93164-14.23438 29.50386 29.50386 0 0 0 28.23828 21.04297 29.50386 29.50386 0 0 0 27.47266-18.82812 27.23433 27.23433 0 0 0 12.24414 2.9414 27.23433 27.23433 0 0 0 13.99414-3.90234 30.07124 30.07124 0 0 0 29.69531 25.46289 30.07124 30.07124 0 0 0 28.15821-19.62305 27.23433 27.23433 0 0 0 15.5293 4.8711 27.23433 27.23433 0 0 0 27.23437-27.23438 27.23433 27.23433 0 0 0-1.29883-8.20898 27.23433 27.23433 0 0 0 3.56836.26562 27.23433 27.23433 0 0 0 27.23437-27.23437 27.23433 27.23433 0 0 0-16.98828-25.21485 35.17767 35.17767 0 0 0 5.64063-19.04101 35.17767 35.17767 0 0 0-35.17774-35.17774 35.17767 35.17767 0 0 0-11.02539 1.82032 23.83004 23.83004 0 0 0-23.01757-17.70704 23.83004 23.83004 0 0 0-8.01368 1.41407 34.04291 34.04291 0 0 0 .0703-1.41407 34.04291 34.04291 0 0 0-34.04297-34.04296z" style="opacity:1;fill:#9acd32;fill-opacity:1;stroke:none;stroke-width:1;stroke-miterlimit:4;stroke-dasharray:none;stroke-opacity:1"/>
          <path id="path13278" d="M-70.35548 103.69928a34.04291 34.04291 0 0 0-32.84961 25.26757 24.39742 24.39742 0 0 0-10.83789-2.57226 24.39742 24.39742 0 0 0-16.67774 6.61523 28.3691 28.3691 0 0 0-24.74218-14.55859 28.3691 28.3691 0 0 0-28.24024 25.79297 30.63862 30.63862 0 0 0-6.9375-.82813 30.63862 30.63862 0 0 0-30.63867 30.63867 30.63862 30.63862 0 0 0 1.94141 10.67774 34.04291 34.04291 0 0 0-5.34571-.46484 34.04291 34.04291 0 0 0-34.04297 34.04296 34.04291 34.04291 0 0 0 34.04297 34.04297 34.04291 34.04291 0 0 0 4.125-.29297 34.6103 34.6103 0 0 0-1.85547 11.07422 34.6103 34.6103 0 0 0 34.61133 34.60938 34.6103 34.6103 0 0 0 27.93164-14.23438 29.50386 29.50386 0 0 0 28.23828 21.04297 29.50386 29.50386 0 0 0 27.47266-18.82812 27.23433 27.23433 0 0 0 12.24414 2.9414 27.23433 27.23433 0 0 0 13.99414-3.90234 30.07124 30.07124 0 0 0 29.69531 25.46289 30.07124 30.07124 0 0 0 28.15821-19.62305 27.23433 27.23433 0 0 0 15.5293 4.8711 27.23433 27.23433 0 0 0 27.23437-27.23438 27.23433 27.23433 0 0 0-1.29883-8.20898 27.23433 27.23433 0 0 0 3.56836.26562 27.23433 27.23433 0 0 0 27.23437-27.23437 27.23433 27.23433 0 0 0-16.98828-25.21485 35.17767 35.17767 0 0 0 5.64063-19.04101 35.17767 35.17767 0 0 0-35.17774-35.17774 35.17767 35.17767 0 0 0-11.02539 1.82032 23.83004 23.83004 0 0 0-23.01757-17.70704 23.83004 23.83004 0 0 0-8.01368 1.41407 34.04291 34.04291 0 0 0 .0703-1.41407 34.04291 34.04291 0 0 0-34.04297-34.04296z" style="opacity:1;fill:url(#radialGradient13280);fill-opacity:1;stroke:none;stroke-width:1;stroke-miterlimit:4;stroke-dasharray:none;stroke-opacity:1"/>
        </g>
      </g>
      <g id="g13292" transform="translate(282.69918 427.98194) scale(.6683)">
        <g id="g13294">
          <path id="path13296" d="M-70.35548 103.69928a34.04291 34.04291 0 0 0-32.84961 25.26757 24.39742 24.39742 0 0 0-10.83789-2.57226 24.39742 24.39742 0 0 0-16.67774 6.61523 28.3691 28.3691 0 0 0-24.74218-14.55859 28.3691 28.3691 0 0 0-28.24024 25.79297 30.63862 30.63862 0 0 0-6.9375-.82813 30.63862 30.63862 0 0 0-30.63867 30.63867 30.63862 30.63862 0 0 0 1.94141 10.67774 34.04291 34.04291 0 0 0-5.34571-.46484 34.04291 34.04291 0 0 0-34.04297 34.04296 34.04291 34.04291 0 0 0 34.04297 34.04297 34.04291 34.04291 0 0 0 4.125-.29297 34.6103 34.6103 0 0 0-1.85547 11.07422 34.6103 34.6103 0 0 0 34.61133 34.60938 34.6103 34.6103 0 0 0 27.93164-14.23438 29.50386 29.50386 0 0 0 28.23828 21.04297 29.50386 29.50386 0 0 0 27.47266-18.82812 27.23433 27.23433 0 0 0 12.24414 2.9414 27.23433 27.23433 0 0 0 13.99414-3.90234 30.07124 30.07124 0 0 0 29.69531 25.46289 30.07124 30.07124 0 0 0 28.15821-19.62305 27.23433 27.23433 0 0 0 15.5293 4.8711 27.23433 27.23433 0 0 0 27.23437-27.23438 27.23433 27.23433 0 0 0-1.29883-8.20898 27.23433 27.23433 0 0 0 3.56836.26562 27.23433 27.23433 0 0 0 27.23437-27.23437 27.23433 27.23433 0 0 0-16.98828-25.21485 35.17767 35.17767 0 0 0 5.64063-19.04101 35.17767 35.17767 0 0 0-35.17774-35.17774 35.17767 35.17767 0 0 0-11.02539 1.82032 23.83004 23.83004 0 0 0-23.01757-17.70704 23.83004 23.83004 0 0 0-8.01368 1.41407 34.04291 34.04291 0 0 0 .0703-1.41407 34.04291 34.04291 0 0 0-34.04297-34.04296z" style="opacity:1;fill:#9acd32;fill-opacity:1;stroke:none;stroke-width:1;stroke-miterlimit:4;stroke-dasharray:none;stroke-opacity:1"/>
          <path id="path13298" d="M-70.35548 103.69928a34.04291 34.04291 0 0 0-32.84961 25.26757 24.39742 24.39742 0 0 0-10.83789-2.57226 24.39742 24.39742 0 0 0-16.67774 6.61523 28.3691 28.3691 0 0 0-24.74218-14.55859 28.3691 28.3691 0 0 0-28.24024 25.79297 30.63862 30.63862 0 0 0-6.9375-.82813 30.63862 30.63862 0 0 0-30.63867 30.63867 30.63862 30.63862 0 0 0 1.94141 10.67774 34.04291 34.04291 0 0 0-5.34571-.46484 34.04291 34.04291 0 0 0-34.04297 34.04296 34.04291 34.04291 0 0 0 34.04297 34.04297 34.04291 34.04291 0 0 0 4.125-.29297 34.6103 34.6103 0 0 0-1.85547 11.07422 34.6103 34.6103 0 0 0 34.61133 34.60938 34.6103 34.6103 0 0 0 27.93164-14.23438 29.50386 29.50386 0 0 0 28.23828 21.04297 29.50386 29.50386 0 0 0 27.47266-18.82812 27.23433 27.23433 0 0 0 12.24414 2.9414 27.23433 27.23433 0 0 0 13.99414-3.90234 30.07124 30.07124 0 0 0 29.69531 25.46289 30.07124 30.07124 0 0 0 28.15821-19.62305 27.23433 27.23433 0 0 0 15.5293 4.8711 27.23433 27.23433 0 0 0 27.23437-27.23438 27.23433 27.23433 0 0 0-1.29883-8.20898 27.23433 27.23433 0 0 0 3.56836.26562 27.23433 27.23433 0 0 0 27.23437-27.23437 27.23433 27.23433 0 0 0-16.98828-25.21485 35.17767 35.17767 0 0 0 5.64063-19.04101 35.17767 35.17767 0 0 0-35.17774-35.17774 35.17767 35.17767 0 0 0-11.02539 1.82032 23.83004 23.83004 0 0 0-23.01757-17.70704 23.83004 23.83004 0 0 0-8.01368 1.41407 34.04291 34.04291 0 0 0 .0703-1.41407 34.04291 34.04291 0 0 0-34.04297-34.04296z" style="opacity:1;fill:url(#radialGradient13300);fill-opacity:1;stroke:none;stroke-width:1;stroke-miterlimit:4;stroke-dasharray:none;stroke-opacity:1"/>
        </g>
      </g>
      <g id="g13302" transform="matrix(.562 0 0 .562 542.37695 152.15743)">
        <g id="g13304">
          <path id="path13306" d="M-70.35548 103.69928a34.04291 34.04291 0 0 0-32.84961 25.26757 24.39742 24.39742 0 0 0-10.83789-2.57226 24.39742 24.39742 0 0 0-16.67774 6.61523 28.3691 28.3691 0 0 0-24.74218-14.55859 28.3691 28.3691 0 0 0-28.24024 25.79297 30.63862 30.63862 0 0 0-6.9375-.82813 30.63862 30.63862 0 0 0-30.63867 30.63867 30.63862 30.63862 0 0 0 1.94141 10.67774 34.04291 34.04291 0 0 0-5.34571-.46484 34.04291 34.04291 0 0 0-34.04297 34.04296 34.04291 34.04291 0 0 0 34.04297 34.04297 34.04291 34.04291 0 0 0 4.125-.29297 34.6103 34.6103 0 0 0-1.85547 11.07422 34.6103 34.6103 0 0 0 34.61133 34.60938 34.6103 34.6103 0 0 0 27.93164-14.23438 29.50386 29.50386 0 0 0 28.23828 21.04297 29.50386 29.50386 0 0 0 27.47266-18.82812 27.23433 27.23433 0 0 0 12.24414 2.9414 27.23433 27.23433 0 0 0 13.99414-3.90234 30.07124 30.07124 0 0 0 29.69531 25.46289 30.07124 30.07124 0 0 0 28.15821-19.62305 27.23433 27.23433 0 0 0 15.5293 4.8711 27.23433 27.23433 0 0 0 27.23437-27.23438 27.23433 27.23433 0 0 0-1.29883-8.20898 27.23433 27.23433 0 0 0 3.56836.26562 27.23433 27.23433 0 0 0 27.23437-27.23437 27.23433 27.23433 0 0 0-16.98828-25.21485 35.17767 35.17767 0 0 0 5.64063-19.04101 35.17767 35.17767 0 0 0-35.17774-35.17774 35.17767 35.17767 0 0 0-11.02539 1.82032 23.83004 23.83004 0 0 0-23.01757-17.70704 23.83004 23.83004 0 0 0-8.01368 1.41407 34.04291 34.04291 0 0 0 .0703-1.41407 34.04291 34.04291 0 0 0-34.04297-34.04296z" style="opacity:1;fill:#9acd32;fill-opacity:1;stroke:none;stroke-width:1;stroke-miterlimit:4;stroke-dasharray:none;stroke-opacity:1"/>
          <path id="path13308" d="M-70.35548 103.69928a34.04291 34.04291 0 0 0-32.84961 25.26757 24.39742 24.39742 0 0 0-10.83789-2.57226 24.39742 24.39742 0 0 0-16.67774 6.61523 28.3691 28.3691 0 0 0-24.74218-14.55859 28.3691 28.3691 0 0 0-28.24024 25.79297 30.63862 30.63862 0 0 0-6.9375-.82813 30.63862 30.63862 0 0 0-30.63867 30.63867 30.63862 30.63862 0 0 0 1.94141 10.67774 34.04291 34.04291 0 0 0-5.34571-.46484 34.04291 34.04291 0 0 0-34.04297 34.04296 34.04291 34.04291 0 0 0 34.04297 34.04297 34.04291 34.04291 0 0 0 4.125-.29297 34.6103 34.6103 0 0 0-1.85547 11.07422 34.6103 34.6103 0 0 0 34.61133 34.60938 34.6103 34.6103 0 0 0 27.93164-14.23438 29.50386 29.50386 0 0 0 28.23828 21.04297 29.50386 29.50386 0 0 0 27.47266-18.82812 27.23433 27.23433 0 0 0 12.24414 2.9414 27.23433 27.23433 0 0 0 13.99414-3.90234 30.07124 30.07124 0 0 0 29.69531 25.46289 30.07124 30.07124 0 0 0 28.15821-19.62305 27.23433 27.23433 0 0 0 15.5293 4.8711 27.23433 27.23433 0 0 0 27.23437-27.23438 27.23433 27.23433 0 0 0-1.29883-8.20898 27.23433 27.23433 0 0 0 3.56836.26562 27.23433 27.23433 0 0 0 27.23437-27.23437 27.23433 27.23433 0 0 0-16.98828-25.21485 35.17767 35.17767 0 0 0 5.64063-19.04101 35.17767 35.17767 0 0 0-35.17774-35.17774 35.17767 35.17767 0 0 0-11.02539 1.82032 23.83004 23.83004 0 0 0-23.01757-17.70704 23.83004 23.83004 0 0 0-8.01368 1.41407 34.04291 34.04291 0 0 0 .0703-1.41407 34.04291 34.04291 0 0 0-34.04297-34.04296z" style="opacity:1;fill:url(#radialGradient13310);fill-opacity:1;stroke:none;stroke-width:1;stroke-miterlimit:4;stroke-dasharray:none;stroke-opacity:1"/>
        </g>
      </g>
      <g id="g13598" transform="translate(234.81049 482.19065) scale(.41065)">
        <g id="g13600">
          <path id="path13602" d="M-70.35548 103.69928a34.04291 34.04291 0 0 0-32.84961 25.26757 24.39742 24.39742 0 0 0-10.83789-2.57226 24.39742 24.39742 0 0 0-16.67774 6.61523 28.3691 28.3691 0 0 0-24.74218-14.55859 28.3691 28.3691 0 0 0-28.24024 25.79297 30.63862 30.63862 0 0 0-6.9375-.82813 30.63862 30.63862 0 0 0-30.63867 30.63867 30.63862 30.63862 0 0 0 1.94141 10.67774 34.04291 34.04291 0 0 0-5.34571-.46484 34.04291 34.04291 0 0 0-34.04297 34.04296 34.04291 34.04291 0 0 0 34.04297 34.04297 34.04291 34.04291 0 0 0 4.125-.29297 34.6103 34.6103 0 0 0-1.85547 11.07422 34.6103 34.6103 0 0 0 34.61133 34.60938 34.6103 34.6103 0 0 0 27.93164-14.23438 29.50386 29.50386 0 0 0 28.23828 21.04297 29.50386 29.50386 0 0 0 27.47266-18.82812 27.23433 27.23433 0 0 0 12.24414 2.9414 27.23433 27.23433 0 0 0 13.99414-3.90234 30.07124 30.07124 0 0 0 29.69531 25.46289 30.07124 30.07124 0 0 0 28.15821-19.62305 27.23433 27.23433 0 0 0 15.5293 4.8711 27.23433 27.23433 0 0 0 27.23437-27.23438 27.23433 27.23433 0 0 0-1.29883-8.20898 27.23433 27.23433 0 0 0 3.56836.26562 27.23433 27.23433 0 0 0 27.23437-27.23437 27.23433 27.23433 0 0 0-16.98828-25.21485 35.17767 35.17767 0 0 0 5.64063-19.04101 35.17767 35.17767 0 0 0-35.17774-35.17774 35.17767 35.17767 0 0 0-11.02539 1.82032 23.83004 23.83004 0 0 0-23.01757-17.70704 23.83004 23.83004 0 0 0-8.01368 1.41407 34.04291 34.04291 0 0 0 .0703-1.41407 34.04291 34.04291 0 0 0-34.04297-34.04296z" style="opacity:1;fill:#9acd32;fill-opacity:1;stroke:none;stroke-width:1;stroke-miterlimit:4;stroke-dasharray:none;stroke-opacity:1"/>
          <path id="path13604" d="M-70.35548 103.69928a34.04291 34.04291 0 0 0-32.84961 25.26757 24.39742 24.39742 0 0 0-10.83789-2.57226 24.39742 24.39742 0 0 0-16.67774 6.61523 28.3691 28.3691 0 0 0-24.74218-14.55859 28.3691 28.3691 0 0 0-28.24024 25.79297 30.63862 30.63862 0 0 0-6.9375-.82813 30.63862 30.63862 0 0 0-30.63867 30.63867 30.63862 30.63862 0 0 0 1.94141 10.67774 34.04291 34.04291 0 0 0-5.34571-.46484 34.04291 34.04291 0 0 0-34.04297 34.04296 34.04291 34.04291 0 0 0 34.04297 34.04297 34.04291 34.04291 0 0 0 4.125-.29297 34.6103 34.6103 0 0 0-1.85547 11.07422 34.6103 34.6103 0 0 0 34.61133 34.60938 34.6103 34.6103 0 0 0 27.93164-14.23438 29.50386 29.50386 0 0 0 28.23828 21.04297 29.50386 29.50386 0 0 0 27.47266-18.82812 27.23433 27.23433 0 0 0 12.24414 2.9414 27.23433 27.23433 0 0 0 13.99414-3.90234 30.07124 30.07124 0 0 0 29.69531 25.46289 30.07124 30.07124 0 0 0 28.15821-19.62305 27.23433 27.23433 0 0 0 15.5293 4.8711 27.23433 27.23433 0 0 0 27.23437-27.23438 27.23433 27.23433 0 0 0-1.29883-8.20898 27.23433 27.23433 0 0 0 3.56836.26562 27.23433 27.23433 0 0 0 27.23437-27.23437 27.23433 27.23433 0 0 0-16.98828-25.21485 35.17767 35.17767 0 0 0 5.64063-19.04101 35.17767 35.17767 0 0 0-35.17774-35.17774 35.17767 35.17767 0 0 0-11.02539 1.82032 23.83004 23.83004 0 0 0-23.01757-17.70704 23.83004 23.83004 0 0 0-8.01368 1.41407 34.04291 34.04291 0 0 0 .0703-1.41407 34.04291 34.04291 0 0 0-34.04297-34.04296z" style="opacity:1;fill:url(#radialGradient13606);fill-opacity:1;stroke:none;stroke-width:1;stroke-miterlimit:4;stroke-dasharray:none;stroke-opacity:1"/>
        </g>
      </g>
      <g id="g13322" transform="translate(353.46918 479.13167) scale(.45894)">
        <g id="g13324">
          <path id="path13326" d="M-70.35548 103.69928a34.04291 34.04291 0 0 0-32.84961 25.26757 24.39742 24.39742 0 0 0-10.83789-2.57226 24.39742 24.39742 0 0 0-16.67774 6.61523 28.3691 28.3691 0 0 0-24.74218-14.55859 28.3691 28.3691 0 0 0-28.24024 25.79297 30.63862 30.63862 0 0 0-6.9375-.82813 30.63862 30.63862 0 0 0-30.63867 30.63867 30.63862 30.63862 0 0 0 1.94141 10.67774 34.04291 34.04291 0 0 0-5.34571-.46484 34.04291 34.04291 0 0 0-34.04297 34.04296 34.04291 34.04291 0 0 0 34.04297 34.04297 34.04291 34.04291 0 0 0 4.125-.29297 34.6103 34.6103 0 0 0-1.85547 11.07422 34.6103 34.6103 0 0 0 34.61133 34.60938 34.6103 34.6103 0 0 0 27.93164-14.23438 29.50386 29.50386 0 0 0 28.23828 21.04297 29.50386 29.50386 0 0 0 27.47266-18.82812 27.23433 27.23433 0 0 0 12.24414 2.9414 27.23433 27.23433 0 0 0 13.99414-3.90234 30.07124 30.07124 0 0 0 29.69531 25.46289 30.07124 30.07124 0 0 0 28.15821-19.62305 27.23433 27.23433 0 0 0 15.5293 4.8711 27.23433 27.23433 0 0 0 27.23437-27.23438 27.23433 27.23433 0 0 0-1.29883-8.20898 27.23433 27.23433 0 0 0 3.56836.26562 27.23433 27.23433 0 0 0 27.23437-27.23437 27.23433 27.23433 0 0 0-16.98828-25.21485 35.17767 35.17767 0 0 0 5.64063-19.04101 35.17767 35.17767 0 0 0-35.17774-35.17774 35.17767 35.17767 0 0 0-11.02539 1.82032 23.83004 23.83004 0 0 0-23.01757-17.70704 23.83004 23.83004 0 0 0-8.01368 1.41407 34.04291 34.04291 0 0 0 .0703-1.41407 34.04291 34.04291 0 0 0-34.04297-34.04296z" style="opacity:1;fill:#9acd32;fill-opacity:1;stroke:none;stroke-width:1;stroke-miterlimit:4;stroke-dasharray:none;stroke-opacity:1"/>
          <path id="path13328" d="M-70.35548 103.69928a34.04291 34.04291 0 0 0-32.84961 25.26757 24.39742 24.39742 0 0 0-10.83789-2.57226 24.39742 24.39742 0 0 0-16.67774 6.61523 28.3691 28.3691 0 0 0-24.74218-14.55859 28.3691 28.3691 0 0 0-28.24024 25.79297 30.63862 30.63862 0 0 0-6.9375-.82813 30.63862 30.63862 0 0 0-30.63867 30.63867 30.63862 30.63862 0 0 0 1.94141 10.67774 34.04291 34.04291 0 0 0-5.34571-.46484 34.04291 34.04291 0 0 0-34.04297 34.04296 34.04291 34.04291 0 0 0 34.04297 34.04297 34.04291 34.04291 0 0 0 4.125-.29297 34.6103 34.6103 0 0 0-1.85547 11.07422 34.6103 34.6103 0 0 0 34.61133 34.60938 34.6103 34.6103 0 0 0 27.93164-14.23438 29.50386 29.50386 0 0 0 28.23828 21.04297 29.50386 29.50386 0 0 0 27.47266-18.82812 27.23433 27.23433 0 0 0 12.24414 2.9414 27.23433 27.23433 0 0 0 13.99414-3.90234 30.07124 30.07124 0 0 0 29.69531 25.46289 30.07124 30.07124 0 0 0 28.15821-19.62305 27.23433 27.23433 0 0 0 15.5293 4.8711 27.23433 27.23433 0 0 0 27.23437-27.23438 27.23433 27.23433 0 0 0-1.29883-8.20898 27.23433 27.23433 0 0 0 3.56836.26562 27.23433 27.23433 0 0 0 27.23437-27.23437 27.23433 27.23433 0 0 0-16.98828-25.21485 35.17767 35.17767 0 0 0 5.64063-19.04101 35.17767 35.17767 0 0 0-35.17774-35.17774 35.17767 35.17767 0 0 0-11.02539 1.82032 23.83004 23.83004 0 0 0-23.01757-17.70704 23.83004 23.83004 0 0 0-8.01368 1.41407 34.04291 34.04291 0 0 0 .0703-1.41407 34.04291 34.04291 0 0 0-34.04297-34.04296z" style="opacity:1;fill:url(#radialGradient13330);fill-opacity:1;stroke:none;stroke-width:1;stroke-miterlimit:4;stroke-dasharray:none;stroke-opacity:1"/>
        </g>
      </g>
      <g id="g13282" transform="translate(476.56375 257.96212) scale(1.04082)">
        <g id="g13284">
          <path id="path13286" d="M-70.35548 103.69928a34.04291 34.04291 0 0 0-32.84961 25.26757 24.39742 24.39742 0 0 0-10.83789-2.57226 24.39742 24.39742 0 0 0-16.67774 6.61523 28.3691 28.3691 0 0 0-24.74218-14.55859 28.3691 28.3691 0 0 0-28.24024 25.79297 30.63862 30.63862 0 0 0-6.9375-.82813 30.63862 30.63862 0 0 0-30.63867 30.63867 30.63862 30.63862 0 0 0 1.94141 10.67774 34.04291 34.04291 0 0 0-5.34571-.46484 34.04291 34.04291 0 0 0-34.04297 34.04296 34.04291 34.04291 0 0 0 34.04297 34.04297 34.04291 34.04291 0 0 0 4.125-.29297 34.6103 34.6103 0 0 0-1.85547 11.07422 34.6103 34.6103 0 0 0 34.61133 34.60938 34.6103 34.6103 0 0 0 27.93164-14.23438 29.50386 29.50386 0 0 0 28.23828 21.04297 29.50386 29.50386 0 0 0 27.47266-18.82812 27.23433 27.23433 0 0 0 12.24414 2.9414 27.23433 27.23433 0 0 0 13.99414-3.90234 30.07124 30.07124 0 0 0 29.69531 25.46289 30.07124 30.07124 0 0 0 28.15821-19.62305 27.23433 27.23433 0 0 0 15.5293 4.8711 27.23433 27.23433 0 0 0 27.23437-27.23438 27.23433 27.23433 0 0 0-1.29883-8.20898 27.23433 27.23433 0 0 0 3.56836.26562 27.23433 27.23433 0 0 0 27.23437-27.23437 27.23433 27.23433 0 0 0-16.98828-25.21485 35.17767 35.17767 0 0 0 5.64063-19.04101 35.17767 35.17767 0 0 0-35.17774-35.17774 35.17767 35.17767 0 0 0-11.02539 1.82032 23.83004 23.83004 0 0 0-23.01757-17.70704 23.83004 23.83004 0 0 0-8.01368 1.41407 34.04291 34.04291 0 0 0 .0703-1.41407 34.04291 34.04291 0 0 0-34.04297-34.04296z" style="opacity:1;fill:#9acd32;fill-opacity:1;stroke:none;stroke-width:1;stroke-miterlimit:4;stroke-dasharray:none;stroke-opacity:1"/>
          <path id="path13288" d="M-70.35548 103.69928a34.04291 34.04291 0 0 0-32.84961 25.26757 24.39742 24.39742 0 0 0-10.83789-2.57226 24.39742 24.39742 0 0 0-16.67774 6.61523 28.3691 28.3691 0 0 0-24.74218-14.55859 28.3691 28.3691 0 0 0-28.24024 25.79297 30.63862 30.63862 0 0 0-6.9375-.82813 30.63862 30.63862 0 0 0-30.63867 30.63867 30.63862 30.63862 0 0 0 1.94141 10.67774 34.04291 34.04291 0 0 0-5.34571-.46484 34.04291 34.04291 0 0 0-34.04297 34.04296 34.04291 34.04291 0 0 0 34.04297 34.04297 34.04291 34.04291 0 0 0 4.125-.29297 34.6103 34.6103 0 0 0-1.85547 11.07422 34.6103 34.6103 0 0 0 34.61133 34.60938 34.6103 34.6103 0 0 0 27.93164-14.23438 29.50386 29.50386 0 0 0 28.23828 21.04297 29.50386 29.50386 0 0 0 27.47266-18.82812 27.23433 27.23433 0 0 0 12.24414 2.9414 27.23433 27.23433 0 0 0 13.99414-3.90234 30.07124 30.07124 0 0 0 29.69531 25.46289 30.07124 30.07124 0 0 0 28.15821-19.62305 27.23433 27.23433 0 0 0 15.5293 4.8711 27.23433 27.23433 0 0 0 27.23437-27.23438 27.23433 27.23433 0 0 0-1.29883-8.20898 27.23433 27.23433 0 0 0 3.56836.26562 27.23433 27.23433 0 0 0 27.23437-27.23437 27.23433 27.23433 0 0 0-16.98828-25.21485 35.17767 35.17767 0 0 0 5.64063-19.04101 35.17767 35.17767 0 0 0-35.17774-35.17774 35.17767 35.17767 0 0 0-11.02539 1.82032 23.83004 23.83004 0 0 0-23.01757-17.70704 23.83004 23.83004 0 0 0-8.01368 1.41407 34.04291 34.04291 0 0 0 .0703-1.41407 34.04291 34.04291 0 0 0-34.04297-34.04296z" style="opacity:1;fill:url(#radialGradient13290);fill-opacity:1;stroke:none;stroke-width:1;stroke-miterlimit:4;stroke-dasharray:none;stroke-opacity:1"/>
        </g>
      </g>
      <g id="g13312" transform="matrix(.562 0 0 .562 651.49045 266.0469)">
        <g id="g13314">
          <path id="path13316" d="M-70.35548 103.69928a34.04291 34.04291 0 0 0-32.84961 25.26757 24.39742 24.39742 0 0 0-10.83789-2.57226 24.39742 24.39742 0 0 0-16.67774 6.61523 28.3691 28.3691 0 0 0-24.74218-14.55859 28.3691 28.3691 0 0 0-28.24024 25.79297 30.63862 30.63862 0 0 0-6.9375-.82813 30.63862 30.63862 0 0 0-30.63867 30.63867 30.63862 30.63862 0 0 0 1.94141 10.67774 34.04291 34.04291 0 0 0-5.34571-.46484 34.04291 34.04291 0 0 0-34.04297 34.04296 34.04291 34.04291 0 0 0 34.04297 34.04297 34.04291 34.04291 0 0 0 4.125-.29297 34.6103 34.6103 0 0 0-1.85547 11.07422 34.6103 34.6103 0 0 0 34.61133 34.60938 34.6103 34.6103 0 0 0 27.93164-14.23438 29.50386 29.50386 0 0 0 28.23828 21.04297 29.50386 29.50386 0 0 0 27.47266-18.82812 27.23433 27.23433 0 0 0 12.24414 2.9414 27.23433 27.23433 0 0 0 13.99414-3.90234 30.07124 30.07124 0 0 0 29.69531 25.46289 30.07124 30.07124 0 0 0 28.15821-19.62305 27.23433 27.23433 0 0 0 15.5293 4.8711 27.23433 27.23433 0 0 0 27.23437-27.23438 27.23433 27.23433 0 0 0-1.29883-8.20898 27.23433 27.23433 0 0 0 3.56836.26562 27.23433 27.23433 0 0 0 27.23437-27.23437 27.23433 27.23433 0 0 0-16.98828-25.21485 35.17767 35.17767 0 0 0 5.64063-19.04101 35.17767 35.17767 0 0 0-35.17774-35.17774 35.17767 35.17767 0 0 0-11.02539 1.82032 23.83004 23.83004 0 0 0-23.01757-17.70704 23.83004 23.83004 0 0 0-8.01368 1.41407 34.04291 34.04291 0 0 0 .0703-1.41407 34.04291 34.04291 0 0 0-34.04297-34.04296z" style="opacity:1;fill:#9acd32;fill-opacity:1;stroke:none;stroke-width:1;stroke-miterlimit:4;stroke-dasharray:none;stroke-opacity:1"/>
          <path id="path13318" d="M-70.35548 103.69928a34.04291 34.04291 0 0 0-32.84961 25.26757 24.39742 24.39742 0 0 0-10.83789-2.57226 24.39742 24.39742 0 0 0-16.67774 6.61523 28.3691 28.3691 0 0 0-24.74218-14.55859 28.3691 28.3691 0 0 0-28.24024 25.79297 30.63862 30.63862 0 0 0-6.9375-.82813 30.63862 30.63862 0 0 0-30.63867 30.63867 30.63862 30.63862 0 0 0 1.94141 10.67774 34.04291 34.04291 0 0 0-5.34571-.46484 34.04291 34.04291 0 0 0-34.04297 34.04296 34.04291 34.04291 0 0 0 34.04297 34.04297 34.04291 34.04291 0 0 0 4.125-.29297 34.6103 34.6103 0 0 0-1.85547 11.07422 34.6103 34.6103 0 0 0 34.61133 34.60938 34.6103 34.6103 0 0 0 27.93164-14.23438 29.50386 29.50386 0 0 0 28.23828 21.04297 29.50386 29.50386 0 0 0 27.47266-18.82812 27.23433 27.23433 0 0 0 12.24414 2.9414 27.23433 27.23433 0 0 0 13.99414-3.90234 30.07124 30.07124 0 0 0 29.69531 25.46289 30.07124 30.07124 0 0 0 28.15821-19.62305 27.23433 27.23433 0 0 0 15.5293 4.8711 27.23433 27.23433 0 0 0 27.23437-27.23438 27.23433 27.23433 0 0 0-1.29883-8.20898 27.23433 27.23433 0 0 0 3.56836.26562 27.23433 27.23433 0 0 0 27.23437-27.23437 27.23433 27.23433 0 0 0-16.98828-25.21485 35.17767 35.17767 0 0 0 5.64063-19.04101 35.17767 35.17767 0 0 0-35.17774-35.17774 35.17767 35.17767 0 0 0-11.02539 1.82032 23.83004 23.83004 0 0 0-23.01757-17.70704 23.83004 23.83004 0 0 0-8.01368 1.41407 34.04291 34.04291 0 0 0 .0703-1.41407 34.04291 34.04291 0 0 0-34.04297-34.04296z" style="opacity:1;fill:url(#radialGradient13320);fill-opacity:1;stroke:none;stroke-width:1;stroke-miterlimit:4;stroke-dasharray:none;stroke-opacity:1"/>
        </g>
      </g>
      <g id="g13508" transform="translate(202.05469 312.81663) scale(.48696)">
        <g id="g13510">
          <path id="path13512" d="M-70.35548 103.69928a34.04291 34.04291 0 0 0-32.84961 25.26757 24.39742 24.39742 0 0 0-10.83789-2.57226 24.39742 24.39742 0 0 0-16.67774 6.61523 28.3691 28.3691 0 0 0-24.74218-14.55859 28.3691 28.3691 0 0 0-28.24024 25.79297 30.63862 30.63862 0 0 0-6.9375-.82813 30.63862 30.63862 0 0 0-30.63867 30.63867 30.63862 30.63862 0 0 0 1.94141 10.67774 34.04291 34.04291 0 0 0-5.34571-.46484 34.04291 34.04291 0 0 0-34.04297 34.04296 34.04291 34.04291 0 0 0 34.04297 34.04297 34.04291 34.04291 0 0 0 4.125-.29297 34.6103 34.6103 0 0 0-1.85547 11.07422 34.6103 34.6103 0 0 0 34.61133 34.60938 34.6103 34.6103 0 0 0 27.93164-14.23438 29.50386 29.50386 0 0 0 28.23828 21.04297 29.50386 29.50386 0 0 0 27.47266-18.82812 27.23433 27.23433 0 0 0 12.24414 2.9414 27.23433 27.23433 0 0 0 13.99414-3.90234 30.07124 30.07124 0 0 0 29.69531 25.46289 30.07124 30.07124 0 0 0 28.15821-19.62305 27.23433 27.23433 0 0 0 15.5293 4.8711 27.23433 27.23433 0 0 0 27.23437-27.23438 27.23433 27.23433 0 0 0-1.29883-8.20898 27.23433 27.23433 0 0 0 3.56836.26562 27.23433 27.23433 0 0 0 27.23437-27.23437 27.23433 27.23433 0 0 0-16.98828-25.21485 35.17767 35.17767 0 0 0 5.64063-19.04101 35.17767 35.17767 0 0 0-35.17774-35.17774 35.17767 35.17767 0 0 0-11.02539 1.82032 23.83004 23.83004 0 0 0-23.01757-17.70704 23.83004 23.83004 0 0 0-8.01368 1.41407 34.04291 34.04291 0 0 0 .0703-1.41407 34.04291 34.04291 0 0 0-34.04297-34.04296z" style="opacity:1;fill:#9acd32;fill-opacity:1;stroke:none;stroke-width:1;stroke-miterlimit:4;stroke-dasharray:none;stroke-opacity:1"/>
          <path id="path13514" d="M-70.35548 103.69928a34.04291 34.04291 0 0 0-32.84961 25.26757 24.39742 24.39742 0 0 0-10.83789-2.57226 24.39742 24.39742 0 0 0-16.67774 6.61523 28.3691 28.3691 0 0 0-24.74218-14.55859 28.3691 28.3691 0 0 0-28.24024 25.79297 30.63862 30.63862 0 0 0-6.9375-.82813 30.63862 30.63862 0 0 0-30.63867 30.63867 30.63862 30.63862 0 0 0 1.94141 10.67774 34.04291 34.04291 0 0 0-5.34571-.46484 34.04291 34.04291 0 0 0-34.04297 34.04296 34.04291 34.04291 0 0 0 34.04297 34.04297 34.04291 34.04291 0 0 0 4.125-.29297 34.6103 34.6103 0 0 0-1.85547 11.07422 34.6103 34.6103 0 0 0 34.61133 34.60938 34.6103 34.6103 0 0 0 27.93164-14.23438 29.50386 29.50386 0 0 0 28.23828 21.04297 29.50386 29.50386 0 0 0 27.47266-18.82812 27.23433 27.23433 0 0 0 12.24414 2.9414 27.23433 27.23433 0 0 0 13.99414-3.90234 30.07124 30.07124 0 0 0 29.69531 25.46289 30.07124 30.07124 0 0 0 28.15821-19.62305 27.23433 27.23433 0 0 0 15.5293 4.8711 27.23433 27.23433 0 0 0 27.23437-27.23438 27.23433 27.23433 0 0 0-1.29883-8.20898 27.23433 27.23433 0 0 0 3.56836.26562 27.23433 27.23433 0 0 0 27.23437-27.23437 27.23433 27.23433 0 0 0-16.98828-25.21485 35.17767 35.17767 0 0 0 5.64063-19.04101 35.17767 35.17767 0 0 0-35.17774-35.17774 35.17767 35.17767 0 0 0-11.02539 1.82032 23.83004 23.83004 0 0 0-23.01757-17.70704 23.83004 23.83004 0 0 0-8.01368 1.41407 34.04291 34.04291 0 0 0 .0703-1.41407 34.04291 34.04291 0 0 0-34.04297-34.04296z" style="opacity:1;fill:url(#radialGradient13516);fill-opacity:1;stroke:none;stroke-width:1;stroke-miterlimit:4;stroke-dasharray:none;stroke-opacity:1"/>
        </g>
      </g>
      <g id="g13518" transform="translate(361.68365 181.56615) scale(.48696)">
        <g id="g13520">
          <path id="path13522" d="M-70.35548 103.69928a34.04291 34.04291 0 0 0-32.84961 25.26757 24.39742 24.39742 0 0 0-10.83789-2.57226 24.39742 24.39742 0 0 0-16.67774 6.61523 28.3691 28.3691 0 0 0-24.74218-14.55859 28.3691 28.3691 0 0 0-28.24024 25.79297 30.63862 30.63862 0 0 0-6.9375-.82813 30.63862 30.63862 0 0 0-30.63867 30.63867 30.63862 30.63862 0 0 0 1.94141 10.67774 34.04291 34.04291 0 0 0-5.34571-.46484 34.04291 34.04291 0 0 0-34.04297 34.04296 34.04291 34.04291 0 0 0 34.04297 34.04297 34.04291 34.04291 0 0 0 4.125-.29297 34.6103 34.6103 0 0 0-1.85547 11.07422 34.6103 34.6103 0 0 0 34.61133 34.60938 34.6103 34.6103 0 0 0 27.93164-14.23438 29.50386 29.50386 0 0 0 28.23828 21.04297 29.50386 29.50386 0 0 0 27.47266-18.82812 27.23433 27.23433 0 0 0 12.24414 2.9414 27.23433 27.23433 0 0 0 13.99414-3.90234 30.07124 30.07124 0 0 0 29.69531 25.46289 30.07124 30.07124 0 0 0 28.15821-19.62305 27.23433 27.23433 0 0 0 15.5293 4.8711 27.23433 27.23433 0 0 0 27.23437-27.23438 27.23433 27.23433 0 0 0-1.29883-8.20898 27.23433 27.23433 0 0 0 3.56836.26562 27.23433 27.23433 0 0 0 27.23437-27.23437 27.23433 27.23433 0 0 0-16.98828-25.21485 35.17767 35.17767 0 0 0 5.64063-19.04101 35.17767 35.17767 0 0 0-35.17774-35.17774 35.17767 35.17767 0 0 0-11.02539 1.82032 23.83004 23.83004 0 0 0-23.01757-17.70704 23.83004 23.83004 0 0 0-8.01368 1.41407 34.04291 34.04291 0 0 0 .0703-1.41407 34.04291 34.04291 0 0 0-34.04297-34.04296z" style="opacity:1;fill:#9acd32;fill-opacity:1;stroke:none;stroke-width:1;stroke-miterlimit:4;stroke-dasharray:none;stroke-opacity:1"/>
          <path id="path13524" d="M-70.35548 103.69928a34.04291 34.04291 0 0 0-32.84961 25.26757 24.39742 24.39742 0 0 0-10.83789-2.57226 24.39742 24.39742 0 0 0-16.67774 6.61523 28.3691 28.3691 0 0 0-24.74218-14.55859 28.3691 28.3691 0 0 0-28.24024 25.79297 30.63862 30.63862 0 0 0-6.9375-.82813 30.63862 30.63862 0 0 0-30.63867 30.63867 30.63862 30.63862 0 0 0 1.94141 10.67774 34.04291 34.04291 0 0 0-5.34571-.46484 34.04291 34.04291 0 0 0-34.04297 34.04296 34.04291 34.04291 0 0 0 34.04297 34.04297 34.04291 34.04291 0 0 0 4.125-.29297 34.6103 34.6103 0 0 0-1.85547 11.07422 34.6103 34.6103 0 0 0 34.61133 34.60938 34.6103 34.6103 0 0 0 27.93164-14.23438 29.50386 29.50386 0 0 0 28.23828 21.04297 29.50386 29.50386 0 0 0 27.47266-18.82812 27.23433 27.23433 0 0 0 12.24414 2.9414 27.23433 27.23433 0 0 0 13.99414-3.90234 30.07124 30.07124 0 0 0 29.69531 25.46289 30.07124 30.07124 0 0 0 28.15821-19.62305 27.23433 27.23433 0 0 0 15.5293 4.8711 27.23433 27.23433 0 0 0 27.23437-27.23438 27.23433 27.23433 0 0 0-1.29883-8.20898 27.23433 27.23433 0 0 0 3.56836.26562 27.23433 27.23433 0 0 0 27.23437-27.23437 27.23433 27.23433 0 0 0-16.98828-25.21485 35.17767 35.17767 0 0 0 5.64063-19.04101 35.17767 35.17767 0 0 0-35.17774-35.17774 35.17767 35.17767 0 0 0-11.02539 1.82032 23.83004 23.83004 0 0 0-23.01757-17.70704 23.83004 23.83004 0 0 0-8.01368 1.41407 34.04291 34.04291 0 0 0 .0703-1.41407 34.04291 34.04291 0 0 0-34.04297-34.04296z" style="opacity:1;fill:url(#radialGradient13526);fill-opacity:1;stroke:none;stroke-width:1;stroke-miterlimit:4;stroke-dasharray:none;stroke-opacity:1"/>
        </g>
      </g>
      <g id="g13528" transform="translate(435.29034 337.56925) scale(.6673)">
        <g id="g13530">
          <path id="path13532" d="M-70.35548 103.69928a34.04291 34.04291 0 0 0-32.84961 25.26757 24.39742 24.39742 0 0 0-10.83789-2.57226 24.39742 24.39742 0 0 0-16.67774 6.61523 28.3691 28.3691 0 0 0-24.74218-14.55859 28.3691 28.3691 0 0 0-28.24024 25.79297 30.63862 30.63862 0 0 0-6.9375-.82813 30.63862 30.63862 0 0 0-30.63867 30.63867 30.63862 30.63862 0 0 0 1.94141 10.67774 34.04291 34.04291 0 0 0-5.34571-.46484 34.04291 34.04291 0 0 0-34.04297 34.04296 34.04291 34.04291 0 0 0 34.04297 34.04297 34.04291 34.04291 0 0 0 4.125-.29297 34.6103 34.6103 0 0 0-1.85547 11.07422 34.6103 34.6103 0 0 0 34.61133 34.60938 34.6103 34.6103 0 0 0 27.93164-14.23438 29.50386 29.50386 0 0 0 28.23828 21.04297 29.50386 29.50386 0 0 0 27.47266-18.82812 27.23433 27.23433 0 0 0 12.24414 2.9414 27.23433 27.23433 0 0 0 13.99414-3.90234 30.07124 30.07124 0 0 0 29.69531 25.46289 30.07124 30.07124 0 0 0 28.15821-19.62305 27.23433 27.23433 0 0 0 15.5293 4.8711 27.23433 27.23433 0 0 0 27.23437-27.23438 27.23433 27.23433 0 0 0-1.29883-8.20898 27.23433 27.23433 0 0 0 3.56836.26562 27.23433 27.23433 0 0 0 27.23437-27.23437 27.23433 27.23433 0 0 0-16.98828-25.21485 35.17767 35.17767 0 0 0 5.64063-19.04101 35.17767 35.17767 0 0 0-35.17774-35.17774 35.17767 35.17767 0 0 0-11.02539 1.82032 23.83004 23.83004 0 0 0-23.01757-17.70704 23.83004 23.83004 0 0 0-8.01368 1.41407 34.04291 34.04291 0 0 0 .0703-1.41407 34.04291 34.04291 0 0 0-34.04297-34.04296z" style="opacity:1;fill:#9acd32;fill-opacity:1;stroke:none;stroke-width:1;stroke-miterlimit:4;stroke-dasharray:none;stroke-opacity:1"/>
          <path id="path13534" d="M-70.35548 103.69928a34.04291 34.04291 0 0 0-32.84961 25.26757 24.39742 24.39742 0 0 0-10.83789-2.57226 24.39742 24.39742 0 0 0-16.67774 6.61523 28.3691 28.3691 0 0 0-24.74218-14.55859 28.3691 28.3691 0 0 0-28.24024 25.79297 30.63862 30.63862 0 0 0-6.9375-.82813 30.63862 30.63862 0 0 0-30.63867 30.63867 30.63862 30.63862 0 0 0 1.94141 10.67774 34.04291 34.04291 0 0 0-5.34571-.46484 34.04291 34.04291 0 0 0-34.04297 34.04296 34.04291 34.04291 0 0 0 34.04297 34.04297 34.04291 34.04291 0 0 0 4.125-.29297 34.6103 34.6103 0 0 0-1.85547 11.07422 34.6103 34.6103 0 0 0 34.61133 34.60938 34.6103 34.6103 0 0 0 27.93164-14.23438 29.50386 29.50386 0 0 0 28.23828 21.04297 29.50386 29.50386 0 0 0 27.47266-18.82812 27.23433 27.23433 0 0 0 12.24414 2.9414 27.23433 27.23433 0 0 0 13.99414-3.90234 30.07124 30.07124 0 0 0 29.69531 25.46289 30.07124 30.07124 0 0 0 28.15821-19.62305 27.23433 27.23433 0 0 0 15.5293 4.8711 27.23433 27.23433 0 0 0 27.23437-27.23438 27.23433 27.23433 0 0 0-1.29883-8.20898 27.23433 27.23433 0 0 0 3.56836.26562 27.23433 27.23433 0 0 0 27.23437-27.23437 27.23433 27.23433 0 0 0-16.98828-25.21485 35.17767 35.17767 0 0 0 5.64063-19.04101 35.17767 35.17767 0 0 0-35.17774-35.17774 35.17767 35.17767 0 0 0-11.02539 1.82032 23.83004 23.83004 0 0 0-23.01757-17.70704 23.83004 23.83004 0 0 0-8.01368 1.41407 34.04291 34.04291 0 0 0 .0703-1.41407 34.04291 34.04291 0 0 0-34.04297-34.04296z" style="opacity:1;fill:url(#radialGradient13536);fill-opacity:1;stroke:none;stroke-width:1;stroke-miterlimit:4;stroke-dasharray:none;stroke-opacity:1"/>
        </g>
      </g>
      <g id="g13558" transform="translate(540.58979 525.24671) scale(.45894)">
        <g id="g13560">
          <path id="path13562" d="M-70.35548 103.69928a34.04291 34.04291 0 0 0-32.84961 25.26757 24.39742 24.39742 0 0 0-10.83789-2.57226 24.39742 24.39742 0 0 0-16.67774 6.61523 28.3691 28.3691 0 0 0-24.74218-14.55859 28.3691 28.3691 0 0 0-28.24024 25.79297 30.63862 30.63862 0 0 0-6.9375-.82813 30.63862 30.63862 0 0 0-30.63867 30.63867 30.63862 30.63862 0 0 0 1.94141 10.67774 34.04291 34.04291 0 0 0-5.34571-.46484 34.04291 34.04291 0 0 0-34.04297 34.04296 34.04291 34.04291 0 0 0 34.04297 34.04297 34.04291 34.04291 0 0 0 4.125-.29297 34.6103 34.6103 0 0 0-1.85547 11.07422 34.6103 34.6103 0 0 0 34.61133 34.60938 34.6103 34.6103 0 0 0 27.93164-14.23438 29.50386 29.50386 0 0 0 28.23828 21.04297 29.50386 29.50386 0 0 0 27.47266-18.82812 27.23433 27.23433 0 0 0 12.24414 2.9414 27.23433 27.23433 0 0 0 13.99414-3.90234 30.07124 30.07124 0 0 0 29.69531 25.46289 30.07124 30.07124 0 0 0 28.15821-19.62305 27.23433 27.23433 0 0 0 15.5293 4.8711 27.23433 27.23433 0 0 0 27.23437-27.23438 27.23433 27.23433 0 0 0-1.29883-8.20898 27.23433 27.23433 0 0 0 3.56836.26562 27.23433 27.23433 0 0 0 27.23437-27.23437 27.23433 27.23433 0 0 0-16.98828-25.21485 35.17767 35.17767 0 0 0 5.64063-19.04101 35.17767 35.17767 0 0 0-35.17774-35.17774 35.17767 35.17767 0 0 0-11.02539 1.82032 23.83004 23.83004 0 0 0-23.01757-17.70704 23.83004 23.83004 0 0 0-8.01368 1.41407 34.04291 34.04291 0 0 0 .0703-1.41407 34.04291 34.04291 0 0 0-34.04297-34.04296z" style="opacity:1;fill:#9acd32;fill-opacity:1;stroke:none;stroke-width:1;stroke-miterlimit:4;stroke-dasharray:none;stroke-opacity:1"/>
          <path id="path13564" d="M-70.35548 103.69928a34.04291 34.04291 0 0 0-32.84961 25.26757 24.39742 24.39742 0 0 0-10.83789-2.57226 24.39742 24.39742 0 0 0-16.67774 6.61523 28.3691 28.3691 0 0 0-24.74218-14.55859 28.3691 28.3691 0 0 0-28.24024 25.79297 30.63862 30.63862 0 0 0-6.9375-.82813 30.63862 30.63862 0 0 0-30.63867 30.63867 30.63862 30.63862 0 0 0 1.94141 10.67774 34.04291 34.04291 0 0 0-5.34571-.46484 34.04291 34.04291 0 0 0-34.04297 34.04296 34.04291 34.04291 0 0 0 34.04297 34.04297 34.04291 34.04291 0 0 0 4.125-.29297 34.6103 34.6103 0 0 0-1.85547 11.07422 34.6103 34.6103 0 0 0 34.61133 34.60938 34.6103 34.6103 0 0 0 27.93164-14.23438 29.50386 29.50386 0 0 0 28.23828 21.04297 29.50386 29.50386 0 0 0 27.47266-18.82812 27.23433 27.23433 0 0 0 12.24414 2.9414 27.23433 27.23433 0 0 0 13.99414-3.90234 30.07124 30.07124 0 0 0 29.69531 25.46289 30.07124 30.07124 0 0 0 28.15821-19.62305 27.23433 27.23433 0 0 0 15.5293 4.8711 27.23433 27.23433 0 0 0 27.23437-27.23438 27.23433 27.23433 0 0 0-1.29883-8.20898 27.23433 27.23433 0 0 0 3.56836.26562 27.23433 27.23433 0 0 0 27.23437-27.23437 27.23433 27.23433 0 0 0-16.98828-25.21485 35.17767 35.17767 0 0 0 5.64063-19.04101 35.17767 35.17767 0 0 0-35.17774-35.17774 35.17767 35.17767 0 0 0-11.02539 1.82032 23.83004 23.83004 0 0 0-23.01757-17.70704 23.83004 23.83004 0 0 0-8.01368 1.41407 34.04291 34.04291 0 0 0 .0703-1.41407 34.04291 34.04291 0 0 0-34.04297-34.04296z" style="opacity:1;fill:url(#radialGradient13566);fill-opacity:1;stroke:none;stroke-width:1;stroke-miterlimit:4;stroke-dasharray:none;stroke-opacity:1"/>
        </g>
      </g>
      <g id="g13588" transform="translate(617.6702 496.4534) scale(.33395)">
        <g id="g13590">
          <path id="path13592" d="M-70.35548 103.69928a34.04291 34.04291 0 0 0-32.84961 25.26757 24.39742 24.39742 0 0 0-10.83789-2.57226 24.39742 24.39742 0 0 0-16.67774 6.61523 28.3691 28.3691 0 0 0-24.74218-14.55859 28.3691 28.3691 0 0 0-28.24024 25.79297 30.63862 30.63862 0 0 0-6.9375-.82813 30.63862 30.63862 0 0 0-30.63867 30.63867 30.63862 30.63862 0 0 0 1.94141 10.67774 34.04291 34.04291 0 0 0-5.34571-.46484 34.04291 34.04291 0 0 0-34.04297 34.04296 34.04291 34.04291 0 0 0 34.04297 34.04297 34.04291 34.04291 0 0 0 4.125-.29297 34.6103 34.6103 0 0 0-1.85547 11.07422 34.6103 34.6103 0 0 0 34.61133 34.60938 34.6103 34.6103 0 0 0 27.93164-14.23438 29.50386 29.50386 0 0 0 28.23828 21.04297 29.50386 29.50386 0 0 0 27.47266-18.82812 27.23433 27.23433 0 0 0 12.24414 2.9414 27.23433 27.23433 0 0 0 13.99414-3.90234 30.07124 30.07124 0 0 0 29.69531 25.46289 30.07124 30.07124 0 0 0 28.15821-19.62305 27.23433 27.23433 0 0 0 15.5293 4.8711 27.23433 27.23433 0 0 0 27.23437-27.23438 27.23433 27.23433 0 0 0-1.29883-8.20898 27.23433 27.23433 0 0 0 3.56836.26562 27.23433 27.23433 0 0 0 27.23437-27.23437 27.23433 27.23433 0 0 0-16.98828-25.21485 35.17767 35.17767 0 0 0 5.64063-19.04101 35.17767 35.17767 0 0 0-35.17774-35.17774 35.17767 35.17767 0 0 0-11.02539 1.82032 23.83004 23.83004 0 0 0-23.01757-17.70704 23.83004 23.83004 0 0 0-8.01368 1.41407 34.04291 34.04291 0 0 0 .0703-1.41407 34.04291 34.04291 0 0 0-34.04297-34.04296z" style="opacity:1;fill:#9acd32;fill-opacity:1;stroke:none;stroke-width:1;stroke-miterlimit:4;stroke-dasharray:none;stroke-opacity:1"/>
          <path id="path13594" d="M-70.35548 103.69928a34.04291 34.04291 0 0 0-32.84961 25.26757 24.39742 24.39742 0 0 0-10.83789-2.57226 24.39742 24.39742 0 0 0-16.67774 6.61523 28.3691 28.3691 0 0 0-24.74218-14.55859 28.3691 28.3691 0 0 0-28.24024 25.79297 30.63862 30.63862 0 0 0-6.9375-.82813 30.63862 30.63862 0 0 0-30.63867 30.63867 30.63862 30.63862 0 0 0 1.94141 10.67774 34.04291 34.04291 0 0 0-5.34571-.46484 34.04291 34.04291 0 0 0-34.04297 34.04296 34.04291 34.04291 0 0 0 34.04297 34.04297 34.04291 34.04291 0 0 0 4.125-.29297 34.6103 34.6103 0 0 0-1.85547 11.07422 34.6103 34.6103 0 0 0 34.61133 34.60938 34.6103 34.6103 0 0 0 27.93164-14.23438 29.50386 29.50386 0 0 0 28.23828 21.04297 29.50386 29.50386 0 0 0 27.47266-18.82812 27.23433 27.23433 0 0 0 12.24414 2.9414 27.23433 27.23433 0 0 0 13.99414-3.90234 30.07124 30.07124 0 0 0 29.69531 25.46289 30.07124 30.07124 0 0 0 28.15821-19.62305 27.23433 27.23433 0 0 0 15.5293 4.8711 27.23433 27.23433 0 0 0 27.23437-27.23438 27.23433 27.23433 0 0 0-1.29883-8.20898 27.23433 27.23433 0 0 0 3.56836.26562 27.23433 27.23433 0 0 0 27.23437-27.23437 27.23433 27.23433 0 0 0-16.98828-25.21485 35.17767 35.17767 0 0 0 5.64063-19.04101 35.17767 35.17767 0 0 0-35.17774-35.17774 35.17767 35.17767 0 0 0-11.02539 1.82032 23.83004 23.83004 0 0 0-23.01757-17.70704 23.83004 23.83004 0 0 0-8.01368 1.41407 34.04291 34.04291 0 0 0 .0703-1.41407 34.04291 34.04291 0 0 0-34.04297-34.04296z" style="opacity:1;fill:url(#radialGradient13596);fill-opacity:1;stroke:none;stroke-width:1;stroke-miterlimit:4;stroke-dasharray:none;stroke-opacity:1"/>
        </g>
      </g>
    </g>
  </g>
</svg>